<?xml version="1.0" encoding="UTF-8"?>
<svg width="72px" height="72px" viewBox="0 0 72 72" version="1.1" xmlns="http://www.w3.org/2000/svg" xmlns:xlink="http://www.w3.org/1999/xlink">
    <!-- Generator: Sketch 52.4 (67378) - http://www.bohemiancoding.com/sketch -->
    <title>Group 4 Copy 2</title>
    <desc>Created with Sketch.</desc>
    <g id="自助装机" stroke="none" stroke-width="1" fill="none" fill-rule="evenodd">
        <g id="icon" transform="translate(-468.000000, -143.000000)">
            <rect fill="#FFFFFF" x="0" y="0" width="1024" height="561"></rect>
            <g id="Group-4-Copy-2" transform="translate(469.000000, 144.000000)">
                <rect id="Rectangle-10" fill="#FFFFFF" x="0" y="0" width="70" height="70"></rect>
                <path d="M16,21 L16,49 L54,49 L54,21 L16,21 Z" id="Rectangle-5" stroke="#93A1C1" stroke-width="2"></path>
                <g id="Group-2" transform="translate(30.000000, 24.000000)" stroke="#93A1C1" stroke-width="2">
                    <rect id="Rectangle-6" x="1" y="1" width="19" height="19" rx="1"></rect>
                    <rect id="Rectangle-6" x="6" y="6" width="9" height="9" rx="1"></rect>
                    <path d="M7.5,3.5 L7.5,5.5" id="Line-4" stroke-linecap="round" stroke-linejoin="round"></path>
                    <path d="M10.5,3.5 L10.5,5.5" id="Line-4" stroke-linecap="round" stroke-linejoin="round"></path>
                    <path d="M13.5,3.5 L13.5,5.5" id="Line-4" stroke-linecap="round" stroke-linejoin="round"></path>
                    <path d="M7.5,15.5 L7.5,17.5" id="Line-4" stroke-linecap="round" stroke-linejoin="round"></path>
                    <path d="M10.5,15.5 L10.5,17.5" id="Line-4" stroke-linecap="round" stroke-linejoin="round"></path>
                    <path d="M13.5,15.5 L13.5,17.5" id="Line-4" stroke-linecap="round" stroke-linejoin="round"></path>
                    <path d="M3.5,7.5 L5.5,7.5" id="Line-5" stroke-linecap="round" stroke-linejoin="round"></path>
                    <path d="M3.5,10.5 L5.5,10.5" id="Line-5" stroke-linecap="round" stroke-linejoin="round"></path>
                    <path d="M3.5,13.5 L5.5,13.5" id="Line-5" stroke-linecap="round" stroke-linejoin="round"></path>
                    <path d="M15.5,7.5 L17.5,7.5" id="Line-5" stroke-linecap="round" stroke-linejoin="round"></path>
                    <path d="M15.5,10.5 L17.5,10.5" id="Line-5" stroke-linecap="round" stroke-linejoin="round"></path>
                    <path d="M15.5,13.5 L17.5,13.5" id="Line-5" stroke-linecap="round" stroke-linejoin="round"></path>
                </g>
                <path d="M23,34 L23,37" id="Line-6" stroke="#93A1C1" stroke-width="2" stroke-linecap="round" stroke-linejoin="round"></path>
                <path d="M24,45 L24,48" id="Line-6-Copy" stroke="#93A1C1" stroke-width="2" stroke-linecap="round" stroke-linejoin="round"></path>
                <path d="M27,45 L27,48" id="Line-6-Copy" stroke="#93A1C1" stroke-width="2" stroke-linecap="round" stroke-linejoin="round"></path>
                <path d="M21,45 L21,48" id="Line-6-Copy" stroke="#93A1C1" stroke-width="2" stroke-linecap="round" stroke-linejoin="round"></path>
                <rect id="Rectangle-7-Copy" stroke="#93A1C1" stroke-width="2" x="21" y="21" width="4" height="12"></rect>
            </g>
        </g>
    </g>
</svg>