<?xml version="1.0" encoding="utf-8"?>
<!-- Generator: Adobe Illustrator 23.0.0, SVG Export Plug-In . SVG Version: 6.00 Build 0)  -->
<svg version="1.1" id="Capa_1" xmlns="http://www.w3.org/2000/svg" xmlns:xlink="http://www.w3.org/1999/xlink" x="0px" y="0px"
	 viewBox="0 0 512 512" style="enable-background:new 0 0 512 512;" xml:space="preserve">
<style type="text/css">
	.st0{fill:#93A1C1;}
</style>
<g>
	<g>
		<path class="st0" d="M238.8,259.1c-2,0-3.7,0.6-3.9,2.3c-0.2,2.3-0.7,5.9-6.1,5.9c-4.2,0-6.4-2-6.4-6.4v-15.4
			c0-4.3,2.3-6.4,6.3-6.4c5.7,0,6.1,3.8,6.3,5.5c0.1,1.7,1.7,2.3,3.9,2.3c2.6,0,3.9-0.7,3.9-3.5c0-6.4-6-10.5-14.3-10.5
			c-7.6,0-13.9,3.4-13.9,12.6v15.4c0,9.2,6.3,12.6,13.8,12.6c8.4,0,14.4-4.3,14.4-10.9C242.8,259.8,241.6,259.1,238.8,259.1z"/>
	</g>
</g>
<g>
	<g>
		<path class="st0" d="M263.2,232.9h-12.1c-1.8,0-2.9,1-2.9,2.2V271c0,1.5,1.9,2.3,3.9,2.3c1.9,0,3.9-0.8,3.9-2.3v-12.8h6.7
			c7.9,0,14.1-3.5,14.1-12.5v-0.3C276.8,236.3,270.8,232.9,263.2,232.9z M269,246.2c0,4.3-2.4,6.4-6.3,6.4h-6.7v-13.4h6.7
			c3.9,0,6.3,2,6.3,6.4V246.2L269,246.2z"/>
	</g>
</g>
<g>
	<g>
		<path class="st0" d="M306.5,232.9c-2,0-3.9,0.7-3.9,2.2v25.8c0,4.3-2.5,6.4-6.6,6.4c-4.2,0-6.6-2-6.6-6.4v-25.8
			c0-1.5-2-2.2-3.9-2.2c-2,0-3.9,0.7-3.9,2.2v25.8c0,9.2,6.3,12.6,14.4,12.6c8.1,0,14.4-3.4,14.4-12.6v-25.8
			C310.4,233.6,308.4,232.9,306.5,232.9z"/>
	</g>
</g>
<g>
	<g>
		<circle class="st0" cx="159.5" cy="149.9" r="4.4"/>
	</g>
</g>
<g>
	<g>
		<circle class="st0" cx="178.4" cy="149.9" r="4.4"/>
	</g>
</g>
<g>
	<g>
		<circle class="st0" cx="197.3" cy="149.9" r="4.4"/>
	</g>
</g>
<g>
	<g>
		<circle class="st0" cx="216.1" cy="149.9" r="4.4"/>
	</g>
</g>
<g>
	<g>
		<circle class="st0" cx="235" cy="149.9" r="4.4"/>
	</g>
</g>
<g>
	<g>
		<circle class="st0" cx="253.9" cy="149.9" r="4.4"/>
	</g>
</g>
<g>
	<g>
		<circle class="st0" cx="272.7" cy="149.9" r="4.4"/>
	</g>
</g>
<g>
	<g>
		<circle class="st0" cx="291.6" cy="149.9" r="4.4"/>
	</g>
</g>
<g>
	<g>
		<circle class="st0" cx="310.5" cy="149.9" r="4.4"/>
	</g>
</g>
<g>
	<g>
		<circle class="st0" cx="329.3" cy="149.9" r="4.4"/>
	</g>
</g>
<g>
	<g>
		<circle class="st0" cx="348.2" cy="149.9" r="4.4"/>
	</g>
</g>
<g>
	<g>
		<circle class="st0" cx="367.1" cy="149.9" r="4.4"/>
	</g>
</g>
<g>
	<g>
		<circle class="st0" cx="159.5" cy="169" r="4.4"/>
	</g>
</g>
<g>
	<g>
		<circle class="st0" cx="178.4" cy="169" r="4.4"/>
	</g>
</g>
<g>
	<g>
		<circle class="st0" cx="197.3" cy="169" r="4.4"/>
	</g>
</g>
<g>
	<g>
		<circle class="st0" cx="216.1" cy="169" r="4.4"/>
	</g>
</g>
<g>
	<g>
		<circle class="st0" cx="235" cy="169" r="4.4"/>
	</g>
</g>
<g>
	<g>
		<circle class="st0" cx="253.9" cy="169" r="4.4"/>
	</g>
</g>
<g>
	<g>
		<circle class="st0" cx="272.7" cy="169" r="4.4"/>
	</g>
</g>
<g>
	<g>
		<circle class="st0" cx="291.6" cy="169" r="4.4"/>
	</g>
</g>
<g>
	<g>
		<circle class="st0" cx="310.5" cy="169" r="4.4"/>
	</g>
</g>
<g>
	<g>
		<circle class="st0" cx="329.3" cy="169" r="4.4"/>
	</g>
</g>
<g>
	<g>
		<circle class="st0" cx="348.2" cy="169" r="4.4"/>
	</g>
</g>
<g>
	<g>
		<circle class="st0" cx="367.1" cy="169" r="4.4"/>
	</g>
</g>
<g>
	<g>
		<circle class="st0" cx="159.5" cy="188.3" r="4.4"/>
	</g>
</g>
<g>
	<g>
		<circle class="st0" cx="178.4" cy="188.3" r="4.4"/>
	</g>
</g>
<g>
	<g>
		<circle class="st0" cx="348.2" cy="188.3" r="4.4"/>
	</g>
</g>
<g>
	<g>
		<circle class="st0" cx="367.1" cy="188.3" r="4.4"/>
	</g>
</g>
<g>
	<g>
		<circle class="st0" cx="159.5" cy="207.4" r="4.4"/>
	</g>
</g>
<g>
	<g>
		<circle class="st0" cx="178.4" cy="207.4" r="4.4"/>
	</g>
</g>
<g>
	<g>
		<circle class="st0" cx="348.2" cy="207.4" r="4.4"/>
	</g>
</g>
<g>
	<g>
		<circle class="st0" cx="367.1" cy="207.4" r="4.4"/>
	</g>
</g>
<g>
	<g>
		<circle class="st0" cx="159.5" cy="226.7" r="4.4"/>
	</g>
</g>
<g>
	<g>
		<circle class="st0" cx="178.4" cy="226.7" r="4.4"/>
	</g>
</g>
<g>
	<g>
		<circle class="st0" cx="348.2" cy="226.7" r="4.4"/>
	</g>
</g>
<g>
	<g>
		<circle class="st0" cx="367.1" cy="226.7" r="4.4"/>
	</g>
</g>
<g>
	<g>
		<circle class="st0" cx="159.5" cy="245.8" r="4.4"/>
	</g>
</g>
<g>
	<g>
		<circle class="st0" cx="178.4" cy="245.8" r="4.4"/>
	</g>
</g>
<g>
	<g>
		<circle class="st0" cx="348.2" cy="245.8" r="4.4"/>
	</g>
</g>
<g>
	<g>
		<circle class="st0" cx="367.1" cy="245.8" r="4.4"/>
	</g>
</g>
<g>
	<g>
		
			<ellipse transform="matrix(3.327791e-02 -0.9994 0.9994 3.327791e-02 -110.6964 415.7048)" class="st0" cx="159.5" cy="265.1" rx="4.4" ry="4.4"/>
	</g>
</g>
<g>
	<g>
		<circle class="st0" cx="178.4" cy="265.1" r="4.4"/>
	</g>
</g>
<g>
	<g>
		<circle class="st0" cx="348.2" cy="265.1" r="4.4"/>
	</g>
</g>
<g>
	<g>
		<circle class="st0" cx="367.1" cy="265.1" r="4.4"/>
	</g>
</g>
<g>
	<g>
		
			<ellipse transform="matrix(3.327791e-02 -0.9994 0.9994 3.327791e-02 -129.7941 434.1772)" class="st0" cx="159.5" cy="284.2" rx="4.4" ry="4.4"/>
	</g>
</g>
<g>
	<g>
		<circle class="st0" cx="178.4" cy="284.2" r="4.4"/>
	</g>
</g>
<g>
	<g>
		<circle class="st0" cx="348.2" cy="284.2" r="4.4"/>
	</g>
</g>
<g>
	<g>
		<circle class="st0" cx="367.1" cy="284.2" r="4.4"/>
	</g>
</g>
<g>
	<g>
		
			<ellipse transform="matrix(3.327791e-02 -0.9994 0.9994 3.327791e-02 -149.0625 452.8148)" class="st0" cx="159.5" cy="303.5" rx="4.4" ry="4.4"/>
	</g>
</g>
<g>
	<g>
		<circle class="st0" cx="178.4" cy="303.5" r="4.4"/>
	</g>
</g>
<g>
	<g>
		<circle class="st0" cx="348.2" cy="303.5" r="4.4"/>
	</g>
</g>
<g>
	<g>
		<circle class="st0" cx="367.1" cy="303.5" r="4.4"/>
	</g>
</g>
<g>
	<g>
		
			<ellipse transform="matrix(3.327791e-02 -0.9994 0.9994 3.327791e-02 -168.1547 471.2818)" class="st0" cx="159.5" cy="322.6" rx="4.4" ry="4.4"/>
	</g>
</g>
<g>
	<g>
		<circle class="st0" cx="178.4" cy="322.6" r="4.4"/>
	</g>
</g>
<g>
	<g>
		<circle class="st0" cx="348.2" cy="322.6" r="4.4"/>
	</g>
</g>
<g>
	<g>
		<circle class="st0" cx="367.1" cy="322.6" r="4.4"/>
	</g>
</g>
<g>
	<g>
		
			<ellipse transform="matrix(3.327791e-02 -0.9994 0.9994 3.327791e-02 -187.4286 489.9247)" class="st0" cx="159.5" cy="341.8" rx="4.4" ry="4.4"/>
	</g>
</g>
<g>
	<g>
		<circle class="st0" cx="178.4" cy="341.8" r="4.4"/>
	</g>
</g>
<g>
	<g>
		<circle class="st0" cx="197.3" cy="341.8" r="4.4"/>
	</g>
</g>
<g>
	<g>
		<circle class="st0" cx="216.1" cy="341.8" r="4.4"/>
	</g>
</g>
<g>
	<g>
		<circle class="st0" cx="235" cy="341.8" r="4.4"/>
	</g>
</g>
<g>
	<g>
		<circle class="st0" cx="253.9" cy="341.8" r="4.4"/>
	</g>
</g>
<g>
	<g>
		<circle class="st0" cx="272.7" cy="341.8" r="4.4"/>
	</g>
</g>
<g>
	<g>
		<circle class="st0" cx="291.6" cy="341.8" r="4.4"/>
	</g>
</g>
<g>
	<g>
		<circle class="st0" cx="310.5" cy="341.8" r="4.4"/>
	</g>
</g>
<g>
	<g>
		<circle class="st0" cx="329.3" cy="341.8" r="4.4"/>
	</g>
</g>
<g>
	<g>
		<circle class="st0" cx="348.2" cy="341.8" r="4.4"/>
	</g>
</g>
<g>
	<g>
		<circle class="st0" cx="367.1" cy="341.8" r="4.4"/>
	</g>
</g>
<g>
	<g>
		
			<ellipse transform="matrix(3.327791e-02 -0.9994 0.9994 3.327791e-02 -206.5208 508.3918)" class="st0" cx="159.5" cy="361" rx="4.4" ry="4.4"/>
	</g>
</g>
<g>
	<g>
		<circle class="st0" cx="178.4" cy="361" r="4.4"/>
	</g>
</g>
<g>
	<g>
		<circle class="st0" cx="197.3" cy="361" r="4.4"/>
	</g>
</g>
<g>
	<g>
		<circle class="st0" cx="216.1" cy="361" r="4.4"/>
	</g>
</g>
<g>
	<g>
		<circle class="st0" cx="235" cy="361" r="4.4"/>
	</g>
</g>
<g>
	<g>
		<circle class="st0" cx="253.9" cy="361" r="4.4"/>
	</g>
</g>
<g>
	<g>
		<circle class="st0" cx="272.7" cy="361" r="4.4"/>
	</g>
</g>
<g>
	<g>
		<circle class="st0" cx="291.6" cy="361" r="4.4"/>
	</g>
</g>
<g>
	<g>
		<circle class="st0" cx="310.5" cy="361" r="4.4"/>
	</g>
</g>
<g>
	<g>
		<circle class="st0" cx="329.3" cy="361" r="4.4"/>
	</g>
</g>
<g>
	<g>
		<circle class="st0" cx="348.2" cy="361" r="4.4"/>
	</g>
</g>
<g>
	<g>
		<circle class="st0" cx="367.1" cy="361" r="4.4"/>
	</g>
</g>
<g>
	<g>
		<path class="st0" d="M327.8,182.2H199.5c-5.3,0-9.6,4.3-9.6,9.6v53.1c0,2.3,1.9,4.1,4.1,4.1s4.1-1.9,4.1-4.1v-53.1
			c0-0.7,0.6-1.3,1.3-1.3h128.3c0.7,0,1.3,0.6,1.3,1.3v53.1c0,2.3,1.9,4.1,4.1,4.1s4.1-1.9,4.1-4.1v-53.1
			C337.4,186.5,333.1,182.2,327.8,182.2z"/>
	</g>
</g>
<g>
	<g>
		<path class="st0" d="M333.3,262.8c-2.3,0-4.1,1.9-4.1,4.1v25.2c0,1-0.4,2-1.1,2.7l-25.7,25.4c-0.7,0.7-1.7,1.1-2.6,1.1H199.5
			c-0.7,0-1.3-0.6-1.3-1.3v-53.1c0-2.3-1.9-4.1-4.1-4.1s-4.1,1.9-4.1,4.1V320c0,5.3,4.3,9.6,9.6,9.6h100.2c3.2,0,6.2-1.2,8.5-3.5
			l25.7-25.4c2.3-2.2,3.6-5.4,3.6-8.5v-25.2C337.4,264.6,335.5,262.8,333.3,262.8z"/>
	</g>
</g>
<g>
	<g>
		<path class="st0" d="M393.4,200.9c2.2,0,4-1.8,4-4c0-2.2-1.8-4-4-4h-11.6v-23.3h11.6c2.2,0,4-1.8,4-4c0-2.2-1.8-4-4-4h-11.6v-7.9
			c0-8.8-7.1-15.9-15.9-15.9H358v-11.6c0-2.2-1.8-4-4-4s-4,1.8-4,4v11.6h-23.3v-11.6c0-2.2-1.8-4-4-4c-2.2,0-4,1.8-4,4v11.6h-23.3
			v-11.6c0-2.2-1.8-4-4-4s-4,1.8-4,4v11.6h-23.3v-11.6c0-2.2-1.8-4-4-4c-2.2,0-4,1.8-4,4v11.6h-23.3v-11.6c0-2.2-1.8-4-4-4
			c-2.2,0-4,1.8-4,4v11.6h-23.3v-11.6c0-2.2-1.8-4-4-4c-2.2,0-4,1.8-4,4v11.6h-23.3v-11.6c0-2.2-1.8-4-4-4c-2.2,0-4,1.8-4,4v11.6
			h-7.9c-8.8,0-15.9,7.1-15.9,15.9v7.9h-11.6c-2.2,0-4,1.8-4,4c0,2.2,1.8,4,4,4h11.6v23.3h-11.6c-2.2,0-4,1.8-4,4c0,2.2,1.8,4,4,4
			h11.6v23.3h-11.6c-2.2,0-4,1.8-4,4c0,2.2,1.8,4,4,4h11.6v23.3h-11.6c-2.2,0-4,1.8-4,4c0,2.2,1.8,4,4,4h11.6v23.3h-11.6
			c-2.2,0-4,1.8-4,4s1.8,4,4,4h11.6v23.3h-11.6c-2.2,0-4,1.8-4,4c0,2.2,1.8,4,4,4h11.6v23.3h-11.6c-2.2,0-4,1.8-4,4s1.8,4,4,4h11.6
			v7.9c0,8.8,7.1,15.9,15.9,15.9h7.9v11.6c0,2.2,1.8,4,4,4c2.2,0,4-1.8,4-4v-11.6h23.3v11.6c0,2.2,1.8,4,4,4c2.2,0,4-1.8,4-4v-11.6
			h23.3v11.6c0,2.2,1.8,4,4,4c2.2,0,4-1.8,4-4v-11.6H256v11.6c0,2.2,1.8,4,4,4c2.2,0,4-1.8,4-4v-11.6h23.3v11.6c0,2.2,1.8,4,4,4
			s4-1.8,4-4v-11.6h23.3v11.6c0,2.2,1.8,4,4,4c2.2,0,4-1.8,4-4v-11.6H350v11.6c0,2.2,1.8,4,4,4s4-1.8,4-4v-11.6h7.9
			c8.8,0,15.9-7.1,15.9-15.9v-7.9h11.6c2.2,0,4-1.8,4-4s-1.8-4-4-4h-11.6v-23.3h11.6c2.2,0,4-1.8,4-4c0-2.2-1.8-4-4-4h-11.6v-23.3
			h11.6c2.2,0,4-1.8,4-4s-1.8-4-4-4h-11.6v-23.3h11.6c2.2,0,4-1.8,4-4c0-2.2-1.8-4-4-4h-11.6v-23.3h11.6c2.2,0,4-1.8,4-4
			c0-2.2-1.8-4-4-4h-11.6v-23.3H393.4z M373.8,165.6C373.8,165.6,373.8,165.6,373.8,165.6C373.8,165.6,373.8,165.6,373.8,165.6v31.3
			c0,0,0,0,0,0c0,0,0,0,0,0v31.3c0,0,0,0,0,0c0,0,0,0,0,0v31.3c0,0,0,0,0,0c0,0,0,0,0,0v31.3c0,0,0,0,0,0c0,0,0,0,0,0v31.3
			c0,0,0,0,0,0c0,0,0,0,0,0v31.3c0,0,0,0,0,0c0,0,0,0,0,0v11.9c0,4.3-3.5,7.9-7.9,7.9H154.1c-4.3,0-7.9-3.5-7.9-7.9V153.6
			c0-4.3,3.5-7.9,7.9-7.9h211.8c4.3,0,7.9,3.5,7.9,7.9V165.6z"/>
	</g>
</g>
</svg>
