<?xml version="1.0" encoding="utf-8"?>
<!-- Generator: Adobe Illustrator 23.0.0, SVG Export Plug-In . SVG Version: 6.00 Build 0)  -->
<svg version="1.1" id="Capa_1" xmlns="http://www.w3.org/2000/svg" xmlns:xlink="http://www.w3.org/1999/xlink" x="0px" y="0px"
	 viewBox="0 0 512 512" style="enable-background:new 0 0 512 512;" xml:space="preserve">
<style type="text/css">
	.st0{fill:#93A1C1;}
</style>
<g>
	<g>
		<path class="st0" d="M393.4,269.1c-2.2,0-4.1,1.8-4.1,4.1v112.7c0,4-3.3,7.3-7.3,7.3H134.9c-4,0-7.3-3.3-7.3-7.3V273.2
			c0-2.2-1.8-4.1-4.1-4.1s-4.1,1.8-4.1,4.1v112.7c0,8.5,6.9,15.4,15.4,15.4H382c8.5,0,15.4-6.9,15.4-15.4V273.2
			C397.5,270.9,395.6,269.1,393.4,269.1z"/>
	</g>
</g>
<g>
	<g>
		<path class="st0" d="M382,123.3H134.9c-8.5,0-15.4,6.9-15.4,15.4v112.7c0,2.2,1.8,4.1,4.1,4.1s4.1-1.8,4.1-4.1V138.7
			c0-4,3.3-7.3,7.3-7.3H382c4,0,7.3,3.3,7.3,7.3v112.7c0,2.2,1.8,4.1,4.1,4.1c2.2,0,4.1-1.8,4.1-4.1V138.7
			C397.5,130.2,390.5,123.3,382,123.3z"/>
	</g>
</g>
<g>
	<g>
		<path class="st0" d="M342.3,178.5c-22.4-22.4-52.1-34.7-83.8-34.7s-61.4,12.3-83.8,34.7c-22.4,22.4-34.7,52.1-34.7,83.8
			s12.3,61.4,34.7,83.8c22.4,22.4,52.1,34.7,83.8,34.7s61.4-12.3,83.8-34.7c22.4-22.4,34.7-52.1,34.7-83.8S364.6,200.9,342.3,178.5z
			 M258.5,372.7c-60.9,0-110.4-49.5-110.4-110.4s49.5-110.4,110.4-110.4s110.4,49.5,110.4,110.4S319.3,372.7,258.5,372.7z"/>
	</g>
</g>
<g>
	<g>
		<path class="st0" d="M365.5,352.5c-8.5,0-15.5,6.9-15.5,15.5c0,8.5,6.9,15.5,15.5,15.5c8.5,0,15.5-6.9,15.5-15.5
			C381,359.4,374.1,352.5,365.5,352.5z M365.5,375.3c-4.1,0-7.3-3.3-7.3-7.3c0-4.1,3.3-7.3,7.3-7.3c4.1,0,7.3,3.3,7.3,7.3
			C372.9,372,369.6,375.3,365.5,375.3z"/>
	</g>
</g>
<g>
	<g>
		<path class="st0" d="M151.4,352.5c-8.5,0-15.5,6.9-15.5,15.5c0,8.5,6.9,15.5,15.5,15.5c8.5,0,15.5-6.9,15.5-15.5
			C166.9,359.4,159.9,352.5,151.4,352.5z M151.4,375.3c-4.1,0-7.3-3.3-7.3-7.3c0-4.1,3.3-7.3,7.3-7.3c4.1,0,7.3,3.3,7.3,7.3
			C158.7,372,155.4,375.3,151.4,375.3z"/>
	</g>
</g>
<g>
	<g>
		<path class="st0" d="M151.4,137.7c-8.5,0-15.5,6.9-15.5,15.5c0,8.5,6.9,15.5,15.5,15.5c8.5,0,15.5-6.9,15.5-15.5
			C166.9,144.7,159.9,137.7,151.4,137.7z M151.4,160.5c-4.1,0-7.3-3.3-7.3-7.3s3.3-7.3,7.3-7.3c4.1,0,7.3,3.3,7.3,7.3
			S155.4,160.5,151.4,160.5z"/>
	</g>
</g>
<g>
	<g>
		<path class="st0" d="M365.5,137.7c-8.5,0-15.5,6.9-15.5,15.5c0,8.5,6.9,15.5,15.5,15.5c8.5,0,15.5-6.9,15.5-15.5
			C381,144.7,374.1,137.7,365.5,137.7z M365.5,160.5c-4.1,0-7.3-3.3-7.3-7.3s3.3-7.3,7.3-7.3c4.1,0,7.3,3.3,7.3,7.3
			S369.6,160.5,365.5,160.5z"/>
	</g>
</g>
<g>
	<g>
		<path class="st0" d="M360.2,256.7c-0.3-6.2-5-11.3-11.2-12.2c-7.8-1.2-16.8-1.8-26.9-1.8c-7.9,0-15.2,0.4-21,0.8
			c9.4-6.1,21.6-10.7,36.2-13.5c4.2-0.8,7.7-3.6,9.4-7.5c1.8-3.9,1.5-8.5-0.7-12.1v0c-5.3-8.9-11.9-17-19.7-23.9
			c-2.4-2.1-5.5-3.3-8.7-3.3c-2.8,0-5.6,0.9-7.8,2.6c-13.5,9.9-26.5,23.8-34.6,33.2c2.3-11,7.7-22.8,16.1-35.2
			c2.4-3.6,2.9-7.9,1.4-12c-1.5-4-4.9-7-9.1-8.1c-10-2.5-20.5-3.6-30.8-3c-6.1,0.3-11.3,5-12.2,11.2c-2.5,16.6-1.9,35.5-1,47.9
			c-6.1-9.4-10.7-21.6-13.5-36.2c-1.2-6.1-6.6-10.6-12.9-10.6c-2.4,0-4.7,0.6-6.7,1.9c-8.9,5.3-17,11.9-23.9,19.7
			c-4.1,4.6-4.4,11.5-0.7,16.5c9.9,13.5,23.8,26.5,33.2,34.6c-11-2.3-22.8-7.7-35.2-16.1c-2.2-1.5-4.7-2.2-7.3-2.2
			c-6,0-11.3,4.1-12.8,9.9c-2.6,10.1-3.6,20.4-3,30.8c0.3,6.1,5,11.3,11.2,12.2c7.8,1.2,16.8,1.8,26.9,1.8c7.9,0,15.2-0.4,21-0.8
			c-9.4,6.1-21.6,10.7-36.2,13.5c-4.2,0.8-7.7,3.6-9.4,7.5c-1.8,3.9-1.5,8.5,0.7,12.1c5.3,8.9,11.9,17,19.7,23.9
			c2.4,2.1,5.5,3.3,8.7,3.3c2.8,0,5.6-0.9,7.8-2.6c13.5-9.9,26.5-23.8,34.6-33.2c-2.3,11-7.7,22.8-16,35.2c-2.4,3.6-2.9,7.9-1.4,12
			c1.5,4,4.9,7,9.1,8.1c8.2,2.1,16.7,3.1,25.2,3.1c1.9,0,3.8-0.1,5.6-0.2c6.1-0.3,11.3-5,12.2-11.2c2.5-16.6,1.9-35.5,1-47.9
			c6.1,9.4,10.7,21.6,13.5,36.2c1.2,6.1,6.6,10.6,12.9,10.6c2.4,0,4.7-0.6,6.7-1.9c8.9-5.3,17-11.9,23.9-19.7
			c4.1-4.6,4.4-11.5,0.7-16.5c-9.9-13.5-23.8-26.5-33.2-34.6c11,2.3,22.8,7.7,35.2,16.1c2.2,1.5,4.7,2.2,7.3,2.2
			c6,0,11.3-4.1,12.8-9.9C359.8,277.4,360.8,267.1,360.2,256.7z M314.7,192.2c0.9-0.7,1.9-1,3-1c1.2,0,2.4,0.4,3.3,1.2
			c7.1,6.4,13.2,13.8,18.1,22c0.8,1.4,0.9,3.1,0.3,4.6c-0.7,1.5-1.9,2.5-3.6,2.8c-16.3,3.2-29.9,8.4-40.4,15.6
			c-3.6-5.4-8.4-9.9-14-13.3C289.2,215.1,301.8,201.7,314.7,192.2z M248.7,173c0.4-2.3,2.3-4.1,4.6-4.3c1.7-0.1,3.5-0.1,5.2-0.1
			c7.8,0,15.6,1,23.2,2.9c1.6,0.4,2.9,1.6,3.5,3.1c0.6,1.5,0.4,3.2-0.5,4.5c-9.3,13.8-15.2,27.1-17.6,39.6c-0.2,0-0.5-0.1-0.7-0.1
			c-0.4-0.1-0.9-0.2-1.3-0.2c-0.3,0-0.6-0.1-1-0.1c-0.4,0-0.8-0.1-1.2-0.1c-0.4,0-0.8-0.1-1.2-0.1c-0.3,0-0.6-0.1-1-0.1
			c-0.7,0-1.5-0.1-2.2-0.1c-0.7,0-1.4,0-2,0.1c-0.1,0-0.3,0-0.4,0c-0.6,0-1.3,0.1-1.9,0.1c-0.2,0-0.3,0-0.5,0.1
			c-0.6,0.1-1.1,0.1-1.7,0.2c-0.2,0-0.4,0.1-0.5,0.1c-0.5,0.1-1,0.2-1.5,0.3c-0.2,0-0.5,0.1-0.7,0.1c-0.5,0.1-1,0.2-1.5,0.3
			C246.9,207.2,246.2,188.8,248.7,173z M194.8,273.8c-9.7,0-18.3-0.6-25.7-1.7c-2.3-0.4-4.1-2.3-4.3-4.6c-0.5-9.6,0.4-19.1,2.8-28.4
			c0.6-2.2,2.6-3.8,4.9-3.8c1,0,1.9,0.3,2.7,0.8c13.8,9.3,27.1,15.2,39.6,17.6c0,0.2-0.1,0.5-0.1,0.7c-0.1,0.4-0.2,0.9-0.2,1.3
			c0,0.3-0.1,0.6-0.1,1c0,0.4-0.1,0.8-0.1,1.2c0,0.4-0.1,0.8-0.1,1.2c0,0.3-0.1,0.6-0.1,1c0,0.7-0.1,1.5-0.1,2.2c0,0.7,0,1.4,0.1,2
			c0,0.1,0,0.3,0,0.4c0,0.6,0.1,1.3,0.1,1.9c0,0.2,0,0.3,0.1,0.5c0.1,0.6,0.1,1.1,0.2,1.7c0,0.2,0.1,0.4,0.1,0.5
			c0.1,0.5,0.2,1,0.3,1.5c0,0.3,0.1,0.5,0.2,0.8c0.1,0.5,0.2,1,0.3,1.5C209.7,273.4,202.5,273.8,194.8,273.8z M188.4,206.1
			c-1.4-1.9-1.3-4.6,0.2-6.3c6.4-7.1,13.8-13.2,22-18.1c0.8-0.5,1.7-0.7,2.6-0.7c2.4,0,4.5,1.7,4.9,4c3.2,16.3,8.4,29.9,15.6,40.4
			c-5.4,3.6-9.9,8.4-13.3,14C211.3,231.5,197.9,219,188.4,206.1z M202.2,332.4c-0.9,0.7-1.9,1-3,1c-1.2,0-2.4-0.4-3.3-1.2
			c-7.1-6.4-13.2-13.8-18.1-22c-0.8-1.4-0.9-3.1-0.3-4.6c0.7-1.5,1.9-2.5,3.6-2.8c16.3-3.2,29.9-8.4,40.4-15.6
			c3.6,5.4,8.4,9.9,14,13.3C227.7,309.5,215.2,322.9,202.2,332.4z M268.3,351.6c-0.4,2.3-2.3,4.1-4.6,4.3
			c-9.5,0.5-19.1-0.4-28.4-2.8c-1.6-0.4-2.9-1.6-3.5-3.1c-0.6-1.5-0.4-3.2,0.5-4.5c9.3-13.8,15.2-27.1,17.6-39.6
			c0.2,0,0.5,0.1,0.7,0.1c0.4,0.1,0.9,0.2,1.3,0.2c0.3,0,0.6,0.1,1,0.1c0.4,0,0.8,0.1,1.2,0.1c0.4,0,0.8,0.1,1.3,0.1
			c0.3,0,0.6,0.1,0.9,0.1c0.7,0,1.5,0.1,2.2,0.1c0.7,0,1.4,0,2-0.1c0.1,0,0.3,0,0.4,0c0.6,0,1.3-0.1,1.9-0.1c0.2,0,0.3,0,0.5-0.1
			c0.6-0.1,1.1-0.1,1.7-0.2c0.2,0,0.3-0.1,0.5-0.1c0.5-0.1,1-0.2,1.5-0.3c0.2,0,0.5-0.1,0.7-0.1c0.5-0.1,1-0.2,1.5-0.3
			C270.1,317.4,270.7,335.8,268.3,351.6z M278,292.9c-0.4,0.3-0.8,0.5-1.3,0.8c0,0,0,0-0.1,0c-0.4,0.2-0.8,0.5-1.3,0.7c0,0,0,0,0,0
			c-1.3,0.7-2.6,1.3-4,1.8c0,0,0,0,0,0c-0.5,0.2-1,0.4-1.5,0.5c0,0-0.1,0-0.1,0c-0.5,0.1-0.9,0.3-1.4,0.4c-0.1,0-0.2,0.1-0.3,0.1
			c-0.4,0.1-0.8,0.2-1.2,0.3c-0.2,0-0.3,0.1-0.5,0.1c-0.4,0.1-0.7,0.2-1.1,0.2c-0.2,0-0.5,0.1-0.7,0.1c-0.3,0.1-0.6,0.1-0.9,0.2
			c-0.3,0-0.6,0.1-0.9,0.1c-0.3,0-0.5,0.1-0.8,0.1c-0.4,0-0.7,0.1-1.1,0.1c-0.2,0-0.4,0-0.6,0c-0.6,0-1.2,0-1.8,0
			c-0.6,0-1.1,0-1.7,0c-0.2,0-0.3,0-0.5,0c-0.4,0-0.8-0.1-1.2-0.1c-0.2,0-0.3,0-0.5,0c-0.5-0.1-1-0.1-1.6-0.2
			c-0.1,0-0.3-0.1-0.4-0.1c-0.4-0.1-0.8-0.1-1.1-0.2c-0.2,0-0.4-0.1-0.7-0.1c-0.3-0.1-0.6-0.1-0.9-0.2c-0.2-0.1-0.4-0.1-0.6-0.2
			c-1.9-0.5-3.8-1.2-5.6-2c0,0,0,0,0,0c-6.4-2.9-11.9-7.6-15.7-13.5c0,0,0,0,0,0c-0.3-0.4-0.5-0.8-0.8-1.2c0,0,0,0,0-0.1
			c-0.2-0.4-0.5-0.8-0.7-1.3c0,0,0,0,0,0c-0.7-1.3-1.3-2.6-1.8-4c0,0,0,0,0,0c-0.2-0.5-0.4-1-0.5-1.5c0,0,0-0.1,0-0.1
			c-0.2-0.5-0.3-0.9-0.4-1.4c0-0.1-0.1-0.2-0.1-0.3c-0.1-0.4-0.2-0.8-0.3-1.2c0-0.2-0.1-0.3-0.1-0.5c-0.1-0.4-0.2-0.7-0.2-1.1
			c0-0.2-0.1-0.5-0.1-0.7c-0.1-0.3-0.1-0.6-0.2-1c0-0.3-0.1-0.6-0.1-0.9c0-0.3-0.1-0.5-0.1-0.8c0-0.4-0.1-0.7-0.1-1.1
			c0-0.2,0-0.4,0-0.7c0-0.6,0-1.2,0-1.8c0-0.6,0-1.1,0-1.7c0-0.2,0-0.3,0-0.5c0-0.4,0.1-0.8,0.1-1.2c0-0.2,0-0.3,0-0.5
			c0.1-0.5,0.1-1,0.2-1.6c0-0.2,0.1-0.3,0.1-0.5c0.1-0.4,0.1-0.8,0.2-1.1c0-0.2,0.1-0.4,0.1-0.7c0.1-0.3,0.1-0.6,0.2-0.9
			c0.1-0.2,0.1-0.4,0.2-0.6c0.5-1.9,1.2-3.8,2-5.6c0,0,0,0,0,0c2.9-6.4,7.6-11.9,13.5-15.7c0,0,0,0,0,0c0.4-0.3,0.8-0.5,1.2-0.8
			c0,0,0,0,0.1,0c0.4-0.2,0.8-0.5,1.3-0.7c0,0,0,0,0,0c1.3-0.7,2.6-1.3,4-1.8c0,0,0,0,0,0c0.5-0.2,1-0.4,1.5-0.5c0,0,0.1,0,0.1,0
			c0.5-0.2,0.9-0.3,1.4-0.4c0.1,0,0.2-0.1,0.3-0.1c0.4-0.1,0.8-0.2,1.2-0.3c0.2,0,0.3-0.1,0.5-0.1c0.4-0.1,0.7-0.2,1.1-0.2
			c0.2,0,0.5-0.1,0.7-0.1c0.3-0.1,0.6-0.1,1-0.2c0.3,0,0.6-0.1,0.9-0.1c0.3,0,0.5-0.1,0.8-0.1c0.4,0,0.7-0.1,1.1-0.1
			c0.2,0,0.4,0,0.7,0c0.6,0,1.2,0,1.8,0c0.6,0,1.1,0,1.7,0c0.2,0,0.3,0,0.5,0c0.4,0,0.8,0.1,1.2,0.1c0.2,0,0.3,0,0.5,0
			c0.5,0.1,1,0.1,1.6,0.2c0.2,0,0.3,0.1,0.5,0.1c0.4,0.1,0.8,0.1,1.1,0.2c0.2,0,0.4,0.1,0.7,0.1c0.3,0.1,0.6,0.1,0.9,0.2
			c0.2,0.1,0.4,0.1,0.6,0.2c1.9,0.5,3.8,1.2,5.6,2c0,0,0,0,0,0c6.4,2.9,11.9,7.6,15.7,13.5c0,0,0,0,0,0c0.3,0.4,0.5,0.8,0.8,1.2
			c0,0,0,0,0,0.1c0.2,0.4,0.5,0.8,0.7,1.3c0,0,0,0,0,0c0.7,1.3,1.3,2.6,1.8,4c0,0,0,0,0,0c0.2,0.5,0.4,1,0.5,1.5c0,0,0,0.1,0,0.1
			c0.1,0.5,0.3,0.9,0.4,1.4c0,0.1,0.1,0.2,0.1,0.3c0.1,0.4,0.2,0.8,0.3,1.2c0,0.2,0.1,0.3,0.1,0.5c0.1,0.4,0.2,0.7,0.2,1.1
			c0,0.2,0.1,0.5,0.1,0.7c0.1,0.3,0.1,0.6,0.2,1c0,0.3,0.1,0.6,0.1,0.9c0,0.3,0.1,0.5,0.1,0.8c0,0.4,0.1,0.7,0.1,1.1
			c0,0.2,0,0.4,0,0.7c0,0.6,0,1.2,0,1.8c0,0.6,0,1.1,0,1.7c0,0.2,0,0.3,0,0.5c0,0.4-0.1,0.8-0.1,1.2c0,0.2,0,0.3,0,0.5
			c-0.1,0.5-0.1,1-0.2,1.6c0,0.2-0.1,0.3-0.1,0.5c-0.1,0.4-0.1,0.8-0.2,1.1c0,0.2-0.1,0.4-0.1,0.7c-0.1,0.3-0.1,0.6-0.2,0.9
			c-0.1,0.2-0.1,0.4-0.2,0.6c-0.5,1.9-1.2,3.8-2,5.6c0,0,0,0,0,0C288.7,283.6,284,289.1,278,292.9C278.1,292.9,278,292.9,278,292.9z
			 M328.6,318.5c1.4,1.9,1.3,4.6-0.2,6.3c-6.4,7.1-13.8,13.2-22,18.1c-0.8,0.5-1.7,0.7-2.6,0.7c-2.4,0-4.5-1.7-4.9-4
			c-3.2-16.3-8.4-29.9-15.6-40.4c5.4-3.6,9.9-8.4,13.3-14C305.6,293.1,319,305.6,328.6,318.5z M349.3,285.5
			c-0.6,2.2-2.6,3.8-4.9,3.8c-1,0-1.9-0.3-2.7-0.8c-13.8-9.3-27.1-15.2-39.6-17.6c0-0.2,0.1-0.5,0.1-0.7c0.1-0.4,0.2-0.9,0.2-1.3
			c0-0.3,0.1-0.7,0.1-1c0-0.4,0.1-0.8,0.1-1.2c0-0.4,0.1-0.8,0.1-1.2c0-0.3,0.1-0.6,0.1-0.9c0-0.7,0.1-1.5,0.1-2.2
			c0-0.7,0-1.4-0.1-2c0-0.1,0-0.3,0-0.4c0-0.6-0.1-1.3-0.1-1.9c0-0.2,0-0.3-0.1-0.5c-0.1-0.6-0.1-1.1-0.2-1.7c0-0.2-0.1-0.4-0.1-0.5
			c-0.1-0.5-0.2-1-0.3-1.5c0-0.3-0.1-0.5-0.2-0.8c-0.1-0.5-0.2-1-0.3-1.5c5.6-0.4,12.8-0.8,20.5-0.8c9.7,0,18.3,0.6,25.7,1.7
			c2.3,0.4,4.1,2.3,4.3,4.6C352.6,266.7,351.7,276.2,349.3,285.5z"/>
	</g>
</g>
</svg>
