<?xml version="1.0" encoding="utf-8"?>
<!-- Generator: Adobe Illustrator 23.0.0, SVG Export Plug-In . SVG Version: 6.00 Build 0)  -->
<svg version="1.1" id="Capa_1" xmlns="http://www.w3.org/2000/svg" xmlns:xlink="http://www.w3.org/1999/xlink" x="0px" y="0px"
	 viewBox="0 0 512 512" style="enable-background:new 0 0 512 512;" xml:space="preserve">
<style type="text/css">
	.st0{fill:#93A1C1;}
</style>
<g>
	<g>
		<path class="st0" d="M128.7,137.4c2.5,0,4.4-2,4.4-4.4v-14.1h199.3v163.4c0,2.5,2,4.4,4.4,4.4c2.5,0,4.4-2,4.4-4.4V114.4
			c0-2.5-2-4.4-4.4-4.4H128.7c-2.5,0-4.4,2-4.4,4.4V133C124.3,135.4,126.3,137.4,128.7,137.4z"/>
		<path class="st0" d="M322.2,255.6v-68.2c0-9-7.4-16.4-16.4-16.4h-9.7c-2.5,0-4.4,2-4.4,4.4s2,4.4,4.4,4.4h9.7
			c4.1,0,7.5,3.4,7.5,7.5v68.2c0,4.1-3.4,7.5-7.5,7.5h-146c-4.1,0-7.5-3.4-7.5-7.5v-68.2c0-4.1,3.4-7.5,7.5-7.5h115.5
			c2.5,0,4.4-2,4.4-4.4s-2-4.4-4.4-4.4H159.8c-9,0-16.4,7.4-16.4,16.4v68.2c0,9,7.4,16.4,16.4,16.4h146
			C314.8,272,322.2,264.7,322.2,255.6z"/>
		<path class="st0" d="M261.8,244c0,0.3,0,0.6,0.1,0.9c0,1.1,0.5,2.2,1.3,3c0.8,0.8,2,1.3,3.1,1.3h0c0.4,0,9.8,0,13.5-0.1
			c13.2-0.2,22.7-11.8,22.7-27.6c0-16.5-9.3-27.7-23.2-27.7h-13.2c-1.2,0-2.3,0.5-3.1,1.3c-0.8,0.8-1.3,2-1.3,3.1v0v0V244z
			 M279.4,202.7c10.6,0,14.3,9.7,14.3,18.8c0,8.9-4.4,18.5-14,18.7c-2,0-5.9,0.1-8.9,0.1c0-5.5-0.1-31.9-0.1-37.5H279.4z"/>
		<path class="st0" d="M213,244c0,0.3,0,0.6,0.1,0.9c0,1.1,0.5,2.2,1.3,3c0.8,0.8,2,1.3,3.1,1.3h0c0.4,0,9.8,0,13.5-0.1
			c13.2-0.2,22.7-11.8,22.7-27.6c0-16.5-9.3-27.7-23.2-27.7h-13.2c-1.2,0-2.3,0.5-3.1,1.3c-0.8,0.8-1.3,2-1.3,3.1v0v0V244z
			 M230.6,202.7c10.6,0,14.3,9.7,14.3,18.8c0,8.9-4.4,18.5-14,18.7c-2,0-5.9,0.1-8.9,0.1c0-5.5-0.1-31.9-0.1-37.5H230.6z"/>
		<path class="st0" d="M200.6,249.9c2.5,0,4.4-2,4.4-4.4v-47.9c0-2.5-2-4.4-4.4-4.4s-4.4,2-4.4,4.4v18.7H172v-18.7
			c0-2.5-2-4.4-4.4-4.4c-2.5,0-4.4,2-4.4,4.4v47.9c0,2.5,2,4.4,4.4,4.4c2.5,0,4.4-2,4.4-4.4v-20.3h24.2v20.3
			C196.2,247.9,198.2,249.9,200.6,249.9L200.6,249.9z"/>
		<path class="st0" d="M308.2,129.1c-7.7,0-14,6.3-14,14c0,7.7,6.3,14,14,14c7.7,0,14-6.3,14-14
			C322.2,135.4,315.9,129.1,308.2,129.1z M308.2,148.3c-2.8,0-5.1-2.3-5.1-5.1c0-2.8,2.3-5.1,5.1-5.1s5.1,2.3,5.1,5.1
			S311,148.3,308.2,148.3z"/>
		<path class="st0" d="M157.4,157.2c7.7,0,14-6.3,14-14c0-7.7-6.3-14-14-14c-7.7,0-14,6.3-14,14
			C143.4,150.9,149.7,157.2,157.4,157.2z M157.4,138c2.8,0,5.1,2.3,5.1,5.1c0,2.8-2.3,5.1-5.1,5.1c-2.8,0-5.1-2.3-5.1-5.1
			C152.3,140.3,154.6,138,157.4,138z"/>
		<path class="st0" d="M308.2,313.9c7.7,0,14-6.3,14-14c0-7.7-6.3-14-14-14c-7.7,0-14,6.3-14,14
			C294.2,307.6,300.5,313.9,308.2,313.9z M308.2,294.8c2.8,0,5.1,2.3,5.1,5.1s-2.3,5.1-5.1,5.1s-5.1-2.3-5.1-5.1
			S305.4,294.8,308.2,294.8z"/>
		<path class="st0" d="M143.4,299.9c0,7.7,6.3,14,14,14c7.7,0,14-6.3,14-14c0-7.7-6.3-14-14-14C149.7,285.9,143.4,292.2,143.4,299.9
			z M162.6,299.9c0,2.8-2.3,5.1-5.1,5.1s-5.1-2.3-5.1-5.1s2.3-5.1,5.1-5.1S162.6,297.1,162.6,299.9z"/>
		<path class="st0" d="M397.9,172.2H394v-14.7c0-2.5-2-4.4-4.4-4.4h-19.1c-2.5,0-4.4,2-4.4,4.4v14.7H362c-2.5,0-4.4,2-4.4,4.4v35.9
			c0,2.5,2,4.4,4.4,4.4h13.5v187.3h-69.8v-11.5h12c2.5,0,4.4-2,4.4-4.4v-12.3h14.7c2.5,0,4.4-2,4.4-4.4v-68.6c0-2.5-2-4.4-4.4-4.4
			s-4.4,2-4.4,4.4v21.1H133.2V153.8c0-2.5-2-4.4-4.4-4.4c-2.5,0-4.4,2-4.4,4.4v217.9c0,2.5,2,4.4,4.4,4.4h151.7v12.3
			c0,2.5,2,4.4,4.4,4.4h12v15.9c0,2.5,2,4.4,4.4,4.4H380c2.5,0,4.4-2,4.4-4.4V217h13.5c2.5,0,4.4-2,4.4-4.4v-35.9
			C402.4,174.2,400.4,172.2,397.9,172.2L397.9,172.2z M228.4,357v10.3h-24V357H228.4z M195.5,367.2h-24V357h24V367.2z M237.3,367.2
			v-14.7c0-2.5-2-4.4-4.4-4.4H167c-2.5,0-4.4,2-4.4,4.4v14.7h-29.4v-34.2h199.3v34.2h-10.3v-14.7c0-2.5-2-4.4-4.4-4.4h-32.9
			c-2.5,0-4.4,2-4.4,4.4v14.7H237.3z M289.3,357h24v27h-24V357z M374.9,161.9h10.3v10.3h-10.3V161.9z M393.5,208.1h-27v-27h27V208.1
			z"/>
	</g>
</g>
</svg>
