<?xml version="1.0" encoding="utf-8"?>
<!-- Generator: Adobe Illustrator 23.0.0, SVG Export Plug-In . SVG Version: 6.00 Build 0)  -->
<svg version="1.1" id="Layer_1" xmlns="http://www.w3.org/2000/svg" xmlns:xlink="http://www.w3.org/1999/xlink" x="0px" y="0px"
	 viewBox="0 0 512 512" style="enable-background:new 0 0 512 512;" xml:space="preserve">
<style type="text/css">
	.st0{fill:#93A1C1;}
</style>
<path class="st0" d="M392.3,256c0.1-40.7-18.1-79.2-49.4-105.1c-50.4-41.7-123.4-41.7-173.8,0c-44.9,37.1-61.2,98.6-40.7,153.1
	c-9.1,9.8-11.3,24.2-5.5,36.3l16.1,33.5c7.8,16.3,27.2,23.1,43.5,15.4c0,0,0.1,0,0.1,0l3.4-1.6c0.3-0.1,0.6-0.3,0.8-0.5
	c8.4,2.7,17.4-1.8,20.1-10.2c1.3-3.9,1-8.2-0.8-11.9l-36.8-76.5c-3.8-7.9-13.3-11.3-21.2-7.5c-1.2,0.6-2.3,1.3-3.4,2.1
	c-10.1-41.9,4.1-85.9,36.8-113.8c1.6,0.9,3.5,1.3,5.3,1.3c2.5,0,4.9-0.8,6.9-2.2c37.2-26.4,87.1-26.4,124.3,0
	c3.6,2.6,8.3,2.9,12.3,0.9c32.7,28,46.9,72,36.8,113.8c-6.7-5.6-16.8-4.7-22.4,2c-0.9,1-1.6,2.1-2.1,3.4L306,364.9
	c-3.9,7.9-0.6,17.4,7.3,21.3c3.7,1.8,8.1,2.1,12,0.8c0.2,0.2,0.5,0.4,0.8,0.5l3.4,1.6c16.3,7.8,35.8,0.9,43.6-15.3l16.1-33.5
	c5.8-12.1,3.6-26.5-5.5-36.3C389.4,288.7,392.4,272.4,392.3,256L392.3,256z M160.2,382.9c-6.2-2.2-11.2-6.7-14-12.6l-16.1-33.5
	c-5.8-12.2-0.8-26.7,11.3-32.7l37.3,77.8C173,384.7,166.3,385,160.2,382.9L160.2,382.9z M151.5,288.1c1.1-0.5,2.2-0.8,3.4-0.8
	c3,0,5.8,1.7,7.1,4.5l36.8,76.5c1.9,3.9,0.2,8.7-3.7,10.6c-3.9,1.9-8.7,0.2-10.6-3.7l0,0l-36.7-76.4l-0.1-0.1
	C145.9,294.7,147.5,290,151.5,288.1C151.5,288.1,151.5,288.1,151.5,288.1L151.5,288.1z M133.5,256c0,12.5,1.9,24.9,5.7,36.9
	c-0.2,1.2-0.2,2.3-0.1,3.5l-0.8,0.4c-1.1,0.5-2.2,1.1-3.2,1.8c-17.4-49.4-2.9-104.4,36.5-139l4,4.2C148.8,187,133.4,220.6,133.5,256
	L133.5,256z M322.8,161.7c-40-28.4-93.7-28.4-133.7,0c-1.5,1.1-3.6,0.9-5-0.4l-6.6-6.9c46.2-35.6,110.6-35.6,156.8,0l-6.6,6.9
	C326.5,162.6,324.4,162.8,322.8,161.7z M336.5,163.8l4-4.2c39.4,34.5,53.8,89.5,36.5,139c-1-0.7-2.1-1.3-3.2-1.8l-0.8-0.4
	c0.1-1.2,0-2.4-0.1-3.5C387.5,246.4,373.2,195.8,336.5,163.8z M316.9,378.9c-3.9-1.9-5.6-6.6-3.7-10.6l36.7-76.5
	c1.3-2.7,4.1-4.5,7.1-4.5c4.4,0,7.9,3.6,7.9,7.9c0,1.2-0.3,2.3-0.8,3.4l-0.1,0.1l-36.7,76.4C325.6,379.2,320.9,380.8,316.9,378.9
	C316.9,378.9,316.9,378.9,316.9,378.9L316.9,378.9z M381.9,336.8l-16.1,33.5c-5.8,12.2-20.4,17.4-32.6,11.7l37.3-77.8
	C382.6,310.1,387.7,324.7,381.9,336.8L381.9,336.8z"/>
</svg>
