<?xml version="1.0" encoding="UTF-8"?>
<svg width="72px" height="72px" viewBox="0 0 72 72" version="1.1" xmlns="http://www.w3.org/2000/svg" xmlns:xlink="http://www.w3.org/1999/xlink">
    <!-- Generator: Sketch 52.4 (67378) - http://www.bohemiancoding.com/sketch -->
    <title>Group 4</title>
    <desc>Created with Sketch.</desc>
    <g id="自助装机" stroke="none" stroke-width="1" fill="none" fill-rule="evenodd">
        <g id="icon" transform="translate(-248.000000, -143.000000)">
            <rect fill="#FFFFFF" x="0" y="0" width="1024" height="561"></rect>
            <g id="Group-4" transform="translate(249.000000, 144.000000)">
                <rect id="Rectangle-10" fill="#FFFFFF" x="0" y="0" width="70" height="70"></rect>
                <g id="键盘" transform="translate(15.000000, 22.000000)">
                    <path d="M9.3942377,17.1109954 L9.3942377,18.9595464 C9.3942377,19.1649447 9.29153855,19.2676439 9.08614026,19.2676439 L7.23758925,19.2676439 C7.03219095,19.2676439 6.9294918,19.1649447 6.9294918,18.9595464 L6.9294918,17.1109954 C6.9294918,16.9055971 7.03219095,16.802898 7.23758925,16.802898 L9.08614026,16.802898 C9.29153855,16.802898 9.3942377,16.9055971 9.3942377,17.1109954 Z M11.8589499,11.1815036 L11.8589499,13.0300546 C11.8589499,13.2354529 11.7562508,13.3381521 11.5508525,13.3381521 L7.23755556,13.3381521 C7.03215726,13.3381521 6.92945811,13.2354529 6.92945811,13.0300546 L6.92945811,11.1815036 C6.92945811,10.9761053 7.03215726,10.8734062 7.23755556,10.8734062 L11.5508525,10.8734062 C11.7562508,10.8734062 11.8589499,10.9761053 11.8589499,11.1815036 Z M9.3942377,6.25201184 L9.3942377,8.10056284 C9.3942377,8.30596114 9.29153855,8.40866029 9.08614026,8.40866029 L7.23758925,8.40866029 C7.03219095,8.40866029 6.9294918,8.30596114 6.9294918,8.10056284 L6.9294918,6.25201184 C6.9294918,6.04661354 7.03219095,5.94391439 7.23758925,5.94391439 L9.08614026,5.94391439 C9.29153855,5.94391439 9.3942377,6.04661354 9.3942377,6.25201184 Z M29.1121375,17.1109954 L29.1121375,18.9595464 C29.1121375,19.1649447 29.0094384,19.2676439 28.8040401,19.2676439 L12.1670474,19.2676439 C11.9616491,19.2676439 11.8589499,19.1649447 11.8589499,18.9595464 L11.8589499,17.1109954 C11.8589499,16.9055971 11.9616491,16.802898 12.1670474,16.802898 L28.8040401,16.802898 C29.0094384,16.802898 29.1121375,16.9055971 29.1121375,17.1109954 Z M16.7884417,11.1815036 L16.7884417,13.0300546 C16.7884417,13.2354529 16.6857426,13.3381521 16.4803443,13.3381521 L14.6317933,13.3381521 C14.426395,13.3381521 14.3236958,13.2354529 14.3236958,13.0300546 L14.3236958,11.1815036 C14.3236958,10.9761053 14.426395,10.8734062 14.6317933,10.8734062 L16.4803443,10.8734062 C16.6857426,10.8734062 16.7884417,10.9761053 16.7884417,11.1815036 Z M14.3236958,6.25201184 L14.3236958,8.10056284 C14.3236958,8.30596114 14.2209967,8.40866029 14.0155984,8.40866029 L12.1670474,8.40866029 C11.9616491,8.40866029 11.8589499,8.30596114 11.8589499,8.10056284 L11.8589499,6.25201184 C11.8589499,6.04661354 11.9616491,5.94391439 12.1670474,5.94391439 L14.0155984,5.94391439 C14.2209967,5.94391439 14.3236958,6.04661354 14.3236958,6.25201184 Z M21.7179335,11.1815036 L21.7179335,13.0300546 C21.7179335,13.2354529 21.6152344,13.3381521 21.4098361,13.3381521 L19.5612851,13.3381521 C19.3558868,13.3381521 19.2531876,13.2354529 19.2531876,13.0300546 L19.2531876,11.1815036 C19.2531876,10.9761053 19.3558868,10.8734062 19.5612851,10.8734062 L21.4098361,10.8734062 C21.6152344,10.8734062 21.7179335,10.9761053 21.7179335,11.1815036 Z M19.2531876,6.25201184 L19.2531876,8.10056284 C19.2531876,8.30596114 19.1504885,8.40866029 18.9450902,8.40866029 L17.0965392,8.40866029 C16.8911409,8.40866029 16.7884417,8.30596114 16.7884417,8.10056284 L16.7884417,6.25201184 C16.7884417,6.04661354 16.8911409,5.94391439 17.0965392,5.94391439 L18.9450902,5.94391439 C19.1504885,5.94391439 19.2531876,6.04661354 19.2531876,6.25201184 Z M26.6474253,11.1815036 L26.6474253,13.0300546 C26.6474253,13.2354529 26.5447262,13.3381521 26.3393279,13.3381521 L24.4907769,13.3381521 C24.2853786,13.3381521 24.1826794,13.2354529 24.1826794,13.0300546 L24.1826794,11.1815036 C24.1826794,10.9761053 24.2853786,10.8734062 24.4907769,10.8734062 L26.3393279,10.8734062 C26.5447262,10.8734062 26.6474253,10.9761053 26.6474253,11.1815036 Z M34.0416293,17.1109954 L34.0416293,18.9595464 C34.0416293,19.1649447 33.9389302,19.2676439 33.7335319,19.2676439 L31.8849809,19.2676439 C31.6795826,19.2676439 31.5768834,19.1649447 31.5768834,18.9595464 L31.5768834,17.1109954 C31.5768834,16.9055971 31.6795826,16.802898 31.8849809,16.802898 L33.7335319,16.802898 C33.9389302,16.802898 34.0416293,16.9055971 34.0416293,17.1109954 Z M24.1826794,6.25201184 L24.1826794,8.10056284 C24.1826794,8.30596114 24.0799803,8.40866029 23.874582,8.40866029 L22.026031,8.40866029 C21.8206327,8.40866029 21.7179335,8.30596114 21.7179335,8.10056284 L21.7179335,6.25201184 C21.7179335,6.04661354 21.8206327,5.94391439 22.026031,5.94391439 L23.874582,5.94391439 C24.0799803,5.94391439 24.1826794,6.04661354 24.1826794,6.25201184 Z M29.1121375,6.25201184 L29.1121375,8.10056284 C29.1121375,8.30596114 29.0094384,8.40866029 28.8040401,8.40866029 L26.9554891,8.40866029 C26.7500908,8.40866029 26.6473916,8.30596114 26.6473916,8.10056284 L26.6473916,6.25201184 C26.6473916,6.04661354 26.7500908,5.94391439 26.9554891,5.94391439 L28.8040401,5.94391439 C29.0094384,5.94391439 29.1121375,6.04661354 29.1121375,6.25201184 Z M34.0416293,6.25201184 L34.0416293,13.0300546 C34.0416293,13.2354529 33.9389302,13.3381521 33.7335319,13.3381521 L29.420235,13.3381521 C29.2148367,13.3381521 29.1121375,13.2354529 29.1121375,13.0300546 L29.1121375,11.1815036 C29.1121375,10.9761053 29.2148367,10.8734062 29.420235,10.8734062 L31.5768834,10.8734062 L31.5768834,6.25201184 C31.5768834,6.04661354 31.6795826,5.94391439 31.8849809,5.94391439 L33.7335319,5.94391439 C33.9389302,5.94391439 34.0416293,6.04661354 34.0416293,6.25201184 Z" id="Shape" fill="#93A1C1" fill-rule="nonzero"></path>
                    <path d="M3,1 C1.8954305,1 1,1.8954305 1,3 L1,22 C1,23.1045695 1.8954305,24 3,24 L37,24 C38.1045695,24 39,23.1045695 39,22 L39,3 C39,1.8954305 38.1045695,1 37,1 L3,1 Z" id="Rectangle-27" stroke="#93A1C1" stroke-width="2"></path>
                </g>
            </g>
        </g>
    </g>
</svg>