<?xml version="1.0" encoding="utf-8"?>
<!-- Generator: Adobe Illustrator 23.0.0, SVG Export Plug-In . SVG Version: 6.00 Build 0)  -->
<svg version="1.1" id="Layer_1" xmlns="http://www.w3.org/2000/svg" xmlns:xlink="http://www.w3.org/1999/xlink" x="0px" y="0px"
	 viewBox="0 0 512 512" style="enable-background:new 0 0 512 512;" xml:space="preserve">
<style type="text/css">
	.st0{fill:#93A1C1;}
</style>
<g id="Computer">
	<path class="st0" d="M363,132H149c-11.8,0-21.4,9.6-21.4,21.4V316c0,11.8,9.6,21.4,21.4,21.4h70.9l-9.6,25.7h-9.9
		c-7.1,0-12.8,5.7-12.8,12.8v8.6c0,2.4,1.9,4.3,4.3,4.3h128.4c2.4,0,4.3-1.9,4.3-4.3v-8.6c0-7.1-5.7-12.8-12.8-12.8h-9.9l-9.6-25.7
		H363c11.8,0,21.4-9.6,21.4-21.4V153.4C384.4,141.6,374.8,132,363,132z M149,140.6h214c7.1,0,12.8,5.7,12.8,12.8V286H136.2V153.4
		C136.2,146.3,141.9,140.6,149,140.6z M315.9,375.9v4.3H196.1v-4.3c0-2.4,1.9-4.3,4.3-4.3h111.3C314,371.6,315.9,373.5,315.9,375.9z
		 M292.6,363.1h-73.2l9.6-25.7h54L292.6,363.1z M363,328.8H149c-7.1,0-12.8-5.7-12.8-12.8v-21.4h239.6V316
		C375.8,323.1,370.1,328.8,363,328.8z"/>
	<path class="st0" d="M256,298.9c-7.1,0-12.8,5.7-12.8,12.8c0,7.1,5.7,12.8,12.8,12.8c7.1,0,12.8-5.7,12.8-12.8
		C268.8,304.6,263.1,298.9,256,298.9z M256,316c-2.4,0-4.3-1.9-4.3-4.3s1.9-4.3,4.3-4.3s4.3,1.9,4.3,4.3S258.4,316,256,316z"/>
</g>
</svg>
