<?xml version="1.0" encoding="utf-8"?>
<!-- Generator: Adobe Illustrator 23.0.0, SVG Export Plug-In . SVG Version: 6.00 Build 0)  -->
<svg version="1.1" id="Layer_1" xmlns="http://www.w3.org/2000/svg" xmlns:xlink="http://www.w3.org/1999/xlink" x="0px" y="0px"
	 viewBox="0 0 479 479" style="enable-background:new 0 0 479 479;" xml:space="preserve">
<style type="text/css">
	.st0{fill:#93A1C1;}
</style>
<path class="st0" d="M368.1,182L368.1,182l-12.6-29.4c-0.7-1.5-2.2-2.5-3.9-2.5H133.4c-1.7,0-3.2,1-3.9,2.5L117,181.9v0.1
	c-0.2,0.4-0.3,0.9-0.3,1.4c0,0.1,0,0.1,0,0.2V343c0,2.3,1.9,4.2,4.2,4.2h243.3c2.3,0,4.2-1.9,4.2-4.2V183.6c0-0.1,0-0.1,0-0.2
	C368.3,182.9,368.2,182.5,368.1,182z M136.2,158.4h212.6l9,21H127.2L136.2,158.4z M360,338.8H125.1v-151H360V338.8z"/>
<path class="st0" d="M295.3,255.1c0.8,0.8,1.9,1.2,3,1.2h33.6c1.1,0,2.2-0.4,3-1.2l12.6-12.6c0.8-0.8,1.2-1.9,1.2-3v-21
	c0-2.3-1.9-4.2-4.2-4.2h-58.7c-2.3,0-4.2,1.9-4.2,4.2v21c0,1.1,0.4,2.2,1.2,3L295.3,255.1z M289.8,222.8h50.3v15L330,248H300
	l-10.1-10.1V222.8z"/>
<path class="st0" d="M305.4,234.2c0.4-0.4,0.7-0.9,0.9-1.4c0.2-0.5,0.3-1,0.3-1.6c0-2.3-1.9-4.2-4.2-4.2s-4.2,1.9-4.2,4.2
	c0,0.5,0.1,1.1,0.3,1.6c0.2,0.5,0.5,1,0.9,1.4C301.1,235.8,303.7,235.8,305.4,234.2z"/>
<path class="st0" d="M313.4,243.4c1.6,0.7,3.4,0.3,4.6-0.9c0.4-0.4,0.7-0.9,0.9-1.4c0.2-0.5,0.3-1,0.3-1.6c0-1.7-1-3.2-2.6-3.9
	c-1.6-0.7-3.4-0.3-4.6,0.9c-0.8,0.8-1.2,1.9-1.2,3c0,1.1,0.4,2.2,1.2,3C312.4,242.9,312.9,243.2,313.4,243.4z"/>
<path class="st0" d="M324.6,234.2c1.7,1.6,4.3,1.6,6,0c0.4-0.4,0.7-0.9,0.9-1.4c0.2-0.5,0.3-1,0.3-1.6c0-1.1-0.5-2.2-1.2-3
	c-1-1-2.4-1.4-3.8-1.1c-0.3,0-0.5,0.1-0.8,0.3c-0.3,0.1-0.5,0.2-0.8,0.4c-0.2,0.2-0.4,0.3-0.6,0.5c-0.8,0.8-1.2,1.9-1.2,3
	c0,0.6,0.1,1.1,0.3,1.6C323.9,233.3,324.2,233.8,324.6,234.2z"/>
<path class="st0" d="M340.2,289.9h-50.3c-2.3,0-4.2,1.9-4.2,4.2v25.2c0,2.3,1.9,4.2,4.2,4.2h50.3c2.3,0,4.2-1.9,4.2-4.2v-25.2
	C344.4,291.8,342.5,289.9,340.2,289.9z M294,298.3h16.8v16.8H294V298.3z M336,315.1h-16.8v-16.8H336V315.1z"/>
<path class="st0" d="M134.6,331.9h16.8v-8.4h-12.6v-12.6h-8.4v16.8C130.4,330,132.3,331.9,134.6,331.9z"/>
<path class="st0" d="M256.3,218.6h8.4v-16.8c0-2.3-1.9-4.2-4.2-4.2h-16.8v8.4h12.6V218.6z"/>
<path class="st0" d="M138.8,206h12.6v-8.4h-16.8c-2.3,0-4.2,1.9-4.2,4.2v16.8h8.4V206z"/>
<path class="st0" d="M256.3,323.5h-12.6v8.4h16.8c2.3,0,4.2-1.9,4.2-4.2v-16.8h-8.4V323.5z"/>
<path class="st0" d="M197.5,201.8c-34.8,0-62.9,28.2-62.9,62.9s28.2,62.9,62.9,62.9s62.9-28.2,62.9-62.9
	C260.4,230,232.3,201.9,197.5,201.8z M233,294.3c14.3-17.1,14.3-41.9,0-59l5.9-5.9c17.6,20.4,17.6,50.5,0,70.9L233,294.3z
	 M218.5,264.8c0,4.1-1.2,8.1-3.5,11.5l-6.2-6.2c1.7-3.4,1.7-7.4,0-10.8l6.2-6.2C217.3,256.6,218.5,260.6,218.5,264.8z M176.6,264.8
	c0-4.1,1.2-8.1,3.5-11.5l6.2,6.2c-1.7,3.4-1.7,7.4,0,10.8l-6.2,6.2C177.8,272.9,176.6,268.9,176.6,264.8z M193.3,264.8
	c0-2.3,1.9-4.2,4.2-4.2s4.2,1.9,4.2,4.2c0,2.3-1.9,4.2-4.2,4.2S193.3,267.1,193.3,264.8z M202.9,253.4c-3.4-1.7-7.4-1.7-10.8,0
	l-6.2-6.2c7-4.7,16.1-4.7,23.1,0L202.9,253.4z M192.1,276.1c3.4,1.7,7.4,1.7,10.8,0l6.2,6.2c-7,4.7-16.1,4.7-23.1,0L192.1,276.1z
	 M215.1,241.3c-10.4-7.8-24.7-7.8-35.1,0l-6-6c13.7-11,33.3-11,47.1,0L215.1,241.3z M174,247.2c-7.8,10.4-7.8,24.7,0,35.1l-6,6
	c-11-13.7-11-33.3,0-47.1L174,247.2z M180,288.2c10.4,7.8,24.7,7.8,35.1,0l6,6c-13.7,11-33.3,11-47.1,0L180,288.2z M221,282.3
	c7.8-10.4,7.8-24.7,0-35.1l6-6c11,13.7,11,33.3,0,47.1L221,282.3z M233,223.4l-5.9,5.9c-17.1-14.3-41.9-14.3-59,0l-5.9-5.9
	C182.5,205.8,212.6,205.8,233,223.4z M156.2,229.3l5.9,5.9c-14.3,17.1-14.3,41.9,0,59l-5.9,5.9C138.6,279.8,138.6,249.7,156.2,229.3
	z M162.1,306.1l5.9-5.9c17.1,14.3,41.9,14.3,59,0l5.9,5.9C212.6,323.7,182.5,323.7,162.1,306.1z"/>
</svg>
