<?xml version="1.0" encoding="utf-8"?>
<!-- Generator: Adobe Illustrator 23.0.0, SVG Export Plug-In . SVG Version: 6.00 Build 0)  -->
<svg version="1.1" id="Layer_1" xmlns="http://www.w3.org/2000/svg" xmlns:xlink="http://www.w3.org/1999/xlink" x="0px" y="0px"
	 viewBox="0 0 512 512" style="enable-background:new 0 0 512 512;" xml:space="preserve">
<style type="text/css">
	.st0{fill:#93A1C1;}
</style>
<g id="Page-1">
	<g>
		<path id="Shape" class="st0" d="M185.8,394.2c-2.6,0-5-1-6.8-2.8l-37.2-37.2c-3.1-3.2-3.7-8-1.4-11.8c2.1-3.6,1.4-8.2-1.5-11.2
			c-3-3-7.5-3.6-11.2-1.5c-3.8,2.3-8.7,1.7-11.8-1.4l-3.8-3.8c-3.7-3.8-3.7-9.8,0-13.6l197.2-197.2c3.8-3.7,9.8-3.7,13.6,0l3.8,3.8
			c3.1,3.2,3.7,8,1.4,11.8c-2.1,3.6-1.4,8.2,1.5,11.2s7.5,3.6,11.2,1.5c3.8-2.3,8.7-1.7,11.8,1.4l37.2,37.2c3.8,3.8,3.7,9.8,0,13.6
			L192.6,391.3C190.8,393.2,188.3,394.2,185.8,394.2L185.8,394.2z M132.4,318.7c5,0,9.8,2,13.4,5.5c6.1,6.1,7.3,15.4,3.1,22.9
			l37,37.3l197-197.2l-37.2-37c-7.4,4.4-16.9,3.2-23-2.9c-6.1-6.1-7.3-15.4-3.1-22.9l-3.6-3.8L119,317.8l3.8,3.5
			C125.7,319.6,129,318.7,132.4,318.7z"/>
		<path class="st0" d="M209.2,404.2c-2.6,0-5-1-6.8-2.8L189,388c-1.3-1.2-1.8-3-1.3-4.8c0.4-1.7,1.8-3,3.5-3.5
			c1.7-0.4,3.5,0.1,4.8,1.3l13.4,13.4l43.2-43.5l-13.4-13.1c-1.9-1.9-1.8-5,0.1-6.9c1.9-1.9,4.9-1.9,6.9-0.1l13.4,13.4
			c3.7,3.8,3.7,9.8,0,13.6L216,401.4C214.2,403.2,211.7,404.2,209.2,404.2L209.2,404.2z"/>
		<path class="st0" d="M282.7,330.6c-2.6,0-5-1-6.8-2.8l-13.4-13.4c-1.8-1.9-1.8-5,0.1-6.8s4.9-1.9,6.8-0.1l13.4,13.4L393,210.6
			l-13.4-13.1c-1.9-1.9-1.8-5,0-6.9c1.9-1.9,5-1.9,6.9,0l13.4,13.4c3.8,3.8,3.7,9.8,0,13.6L289.5,327.8
			C287.7,329.6,285.3,330.7,282.7,330.6L282.7,330.6z"/>
		<path class="st0" d="M225.9,389.4c-1.3,0-2.5-0.5-3.5-1.4l-16.7-16.7c-1.9-1.9-1.8-5,0.1-6.9s4.9-1.9,6.9-0.1l16.7,16.7
			c1.4,1.4,1.8,3.5,1.1,5.3C229.7,388.2,227.9,389.4,225.9,389.4L225.9,389.4z"/>
		<path class="st0" d="M242.6,372.7c-1.3,0-2.5-0.5-3.5-1.4l-16.7-16.7c-1.9-1.9-1.9-5,0-6.9s5-1.9,6.9,0l16.7,16.7
			c1.4,1.4,1.8,3.5,1.1,5.3S244.6,372.7,242.6,372.7L242.6,372.7z"/>
		<path class="st0" d="M299.5,315.9c-1.3,0-2.5-0.5-3.5-1.4l-16.7-16.7c-1.9-1.9-1.8-5,0.1-6.9s4.9-1.9,6.9-0.1l16.7,16.7
			c1.4,1.4,1.8,3.5,1.1,5.3C303.2,314.7,301.4,315.9,299.5,315.9z"/>
		<path class="st0" d="M316.2,299.2c-1.3,0-2.5-0.5-3.5-1.4L296,281c-1.9-1.9-1.8-5,0.1-6.9s4.9-1.9,6.9-0.1l16.7,16.7
			c1.4,1.4,1.8,3.5,1.1,5.3C319.9,298,318.2,299.2,316.2,299.2L316.2,299.2z"/>
		<path class="st0" d="M332.9,282.5c-1.3,0-2.5-0.5-3.5-1.4l-16.7-16.7c-1.9-1.9-1.8-5,0-6.9c1.9-1.9,5-1.9,6.9,0l16.7,16.7
			c1.4,1.4,1.8,3.5,1.1,5.3S334.9,282.5,332.9,282.5L332.9,282.5z"/>
		<path class="st0" d="M349.6,265.7c-1.3,0-2.5-0.5-3.5-1.4l-16.7-16.7c-1.3-1.2-1.8-3-1.3-4.7s1.8-3,3.5-3.5
			c1.7-0.4,3.5,0.1,4.7,1.3l16.7,16.7c1.4,1.4,1.8,3.5,1.1,5.3C353.4,264.6,351.6,265.7,349.6,265.7L349.6,265.7z"/>
		<path class="st0" d="M366.3,249c-1.3,0-2.5-0.5-3.5-1.4l-16.7-16.7c-1.3-1.2-1.8-3-1.3-4.8c0.4-1.7,1.8-3,3.5-3.5s3.5,0.1,4.8,1.3
			l16.7,16.7c1.4,1.4,1.8,3.5,1.1,5.3C370.1,247.8,368.3,249,366.3,249L366.3,249z"/>
		<path class="st0" d="M383,232.3c-1.3,0-2.5-0.5-3.5-1.4l-16.7-16.7c-1.9-1.9-1.8-5,0-6.9c1.9-1.9,5-1.9,6.9,0l16.7,16.7
			c1.4,1.4,1.8,3.5,1.1,5.3S385,232.3,383,232.3L383,232.3z"/>
		<path class="st0" d="M192.5,354c-2.6,0-5.1-1-6.9-2.9l-33.2-33.2c-3.8-3.8-3.8-10,0-13.8l23.2-23.2c3.8-3.8,10-3.8,13.8,0
			l33.2,33.2c3.8,3.8,3.8,10,0,13.8l-23.2,23.2C197.6,353,195.1,354,192.5,354L192.5,354z M182.5,287.8L159.3,311l33.2,33.2
			l23.2-23.2L182.5,287.8z"/>
		<path class="st0" d="M235.9,310.5c-2.6,0-5.1-1-6.9-2.9l-33.2-33.2c-3.8-3.8-3.8-10,0-13.8l23.2-23.2c3.8-3.8,10-3.8,13.8,0
			l33.2,33.2c1.8,1.8,2.9,4.3,2.9,6.9c0,2.6-1,5.1-2.9,6.9l-23.2,23.2C241,309.5,238.5,310.5,235.9,310.5z M225.9,244.4l-23.2,23.2
			l33.2,33.2l23.2-23.2v0l0,0L225.9,244.4z"/>
		<path class="st0" d="M279.4,267.1c-2.6,0-5.1-1-6.9-2.9L239.3,231c-3.8-3.8-3.8-10,0-13.8l23.2-23.2c1.8-1.8,4.3-2.9,6.9-2.9h0
			c2.6,0,5.1,1,6.9,2.9l33.2,33.2c1.8,1.8,2.9,4.3,2.9,6.9s-1,5.1-2.9,6.9l-23.2,23.2C284.5,266,282,267.1,279.4,267.1L279.4,267.1z
			 M269.4,200.9l-23.2,23.2l33.2,33.2l23.2-23.2L269.4,200.9z"/>
		<path class="st0" d="M322.9,223.6c-2.6,0-5.1-1-6.9-2.9l-33.2-33.2c-3.8-3.8-3.8-10,0-13.8l23.2-23.2c1.8-1.8,4.3-2.9,6.9-2.9h0
			c2.6,0,5.1,1,6.9,2.9l33.2,33.2c1.8,1.8,2.9,4.3,2.9,6.9s-1,5.1-2.9,6.9l-23.2,23.2C327.9,222.6,325.5,223.6,322.9,223.6
			L322.9,223.6z M312.8,157.5l-23.2,23.2l33.2,33.2l23.2-23.2l0,0L312.8,157.5z"/>
	</g>
</g>
</svg>
