<?xml version="1.0" encoding="utf-8"?>
<!-- Generator: Adobe Illustrator 23.0.0, SVG Export Plug-In . SVG Version: 6.00 Build 0)  -->
<svg version="1.1" id="line" xmlns="http://www.w3.org/2000/svg" xmlns:xlink="http://www.w3.org/1999/xlink" x="0px" y="0px"
	 viewBox="0 0 512 512" style="enable-background:new 0 0 512 512;" xml:space="preserve">
<style type="text/css">
	.st0{fill:#93A1C1;}
</style>
<path class="st0" d="M318,414c11.1,0,20-9,20-20V126.5c0-11.1-9-20-20-20H194c-11.1,0-20,9-20,20V394c0,11.1,9,20,20,20H318z
	 M184.2,394V126.5c0-5.4,4.4-9.8,9.8-9.8H318c5.4,0,9.8,4.4,9.8,9.8V394c0,5.4-4.4,9.8-9.8,9.8H194
	C188.6,403.7,184.3,399.4,184.2,394L184.2,394z"/>
<path class="st0" d="M199.6,198.8h112.7c2.8,0,5.1-2.3,5.1-5.1v-61.5c0-2.8-2.3-5.1-5.1-5.1H199.6c-2.8,0-5.1,2.3-5.1,5.1v61.5
	C194.5,196.5,196.8,198.8,199.6,198.8z M307.2,188.5H204.7V168h102.5V188.5z M204.7,137.3h102.5v20.5H204.7V137.3z"/>
<path class="st0" d="M273.9,300.9l-5.1,8.9c12.3,7.1,16.5,22.7,9.4,35c-7.1,12.3-22.7,16.5-35,9.4c-12.3-7.1-16.5-22.7-9.4-35
	c2.2-3.9,5.5-7.1,9.4-9.4l-5.1-8.9c-17.2,9.9-23,31.8-13.1,49c9.9,17.2,31.8,23,49,13.1s23-31.8,13.1-49
	C283.9,308.6,279.4,304.1,273.9,300.9z"/>
<path class="st0" d="M250.9,285.9h10.3V332h-10.3V285.9z"/>
<path class="st0" d="M230.4,383.3h15.4v10.3h-15.4V383.3z"/>
<path class="st0" d="M266.2,383.3h15.4v10.3h-15.4V383.3z"/>
<path class="st0" d="M256,209c-9.3,0-17.4,6.4-19.8,15.4h-26.4v10.3h26.4c2.8,10.9,13.9,17.5,24.8,14.7c7.2-1.8,12.9-7.5,14.7-14.7
	h26.4v-10.3h-26.4C273.4,215.4,265.3,209,256,209z M256,239.8c-5.7,0-10.3-4.6-10.3-10.3s4.6-10.3,10.3-10.3s10.3,4.6,10.3,10.3
	S261.7,239.8,256,239.8z"/>
</svg>
