<?xml version="1.0" encoding="utf-8"?>
<!-- Generator: Adobe Illustrator 23.0.0, SVG Export Plug-In . SVG Version: 6.00 Build 0)  -->
<svg version="1.1" id="Capa_1" xmlns="http://www.w3.org/2000/svg" xmlns:xlink="http://www.w3.org/1999/xlink" x="0px" y="0px"
	 viewBox="0 0 512 512" style="enable-background:new 0 0 512 512;" xml:space="preserve">
<style type="text/css">
	.st0{fill:#93A1C1;}
</style>
<g>
	<g>
		<path class="st0" d="M218,247.8c0-2.9,2.7-4.6,7.4-4.6c5.5,0,7,2.3,9,2.3c2.4,0,3.4-2.8,3.4-4.1c0-4-8.6-4.8-12.4-4.8
			c-7.5,0-15.9,3.1-15.9,12c0,14.2,21,11.5,21,20.5c0,3.6-3.4,5.2-7.3,5.2c-6.7,0-8.5-4.6-11.1-4.6c-2,0-3.7,2.5-3.7,4.2
			c0,3.5,6.6,7.5,15.1,7.5c9,0,15.6-4.4,15.6-13C239.1,252.7,218,255.3,218,247.8z"/>
	</g>
</g>
<g>
	<g>
		<path class="st0" d="M250.9,238.2c-4.1,1.7-7.1,5-7.1,10.4c0,14.2,21,11.5,21,20.5c0,3.6-3.4,5.2-7.3,5.2c-6.7,0-8.5-4.6-11.1-4.6
			c-2,0-3.7,2.5-3.7,4.2c0,3.5,6.6,7.5,15.1,7.5c9,0,15.6-4.4,15.6-13c0-15.6-21-13-21-20.4c0-2.9,2.7-4.6,7.4-4.6
			c5.5,0,7,2.3,9,2.3c2.4,0,3.4-2.8,3.4-4.1c0-4-8.6-4.8-12.4-4.8C256.6,236.5,253.5,237,250.9,238.2"/>
	</g>
</g>
<g>
	<g>
		<path class="st0" d="M279.1,273.9v4.4c0,1.3,1.5,2.4,3.7,2.4h11.6c8.6,0,15.4-3.7,15.4-13.8v-16.4c0-10-6.7-13.8-15.4-13.8h-11.6
			c-2.2,0-3.7,1.1-3.7,2.4V273.9 M287.6,243.7h6.8c4.3,0,6.9,2.2,6.9,6.9V267c0,4.7-2.6,6.9-6.9,6.9h-6.8V243.7"/>
	</g>
</g>
<g>
	<g>
		<path class="st0" d="M379.5,252.4V401c0,7.2-5.8,13-13,13H155.5c-7.2,0-13-5.8-13-13v-63.1c0-2.6-2.1-4.7-4.7-4.7
			s-4.7,2.1-4.7,4.7V401c0,12.4,10.1,22.4,22.4,22.4h211.1c12.4,0,22.4-10.1,22.4-22.4V201.2c0-2.6-2.1-4.7-4.7-4.7
			c-2.6,0-4.7,2.1-4.7,4.7V252.4"/>
	</g>
</g>
<g>
	<g>
		<path class="st0" d="M186.5,109.8h180c7.2,0,13,5.8,13,13v53.2c0,2.6,2.1,4.7,4.7,4.7c2.6,0,4.7-2.1,4.7-4.7v-53.2
			c0-12.4-10.1-22.4-22.4-22.4H155.5c-12.4,0-22.4,10.1-22.4,22.4v189.9c0,2.6,2.1,4.7,4.7,4.7c2.6,0,4.7-2.1,4.7-4.7V122.7
			c0-7.2,5.8-13,13-13H186.5"/>
	</g>
</g>
<g>
	<g>
		<path class="st0" d="M293.2,354h18v13.9c0,2.6,2.1,4.7,4.7,4.7c2.6,0,4.7-2.1,4.7-4.7V354h6.1c6.9,0,12.5-5.6,12.5-12.5V182.2
			c0-6.9-5.6-12.5-12.5-12.5h-6.1v-13.9c0-2.6-2.1-4.7-4.7-4.7c-2.6,0-4.7,2.1-4.7,4.7v13.9h-18v-13.9c0-2.6-2.1-4.7-4.7-4.7
			c-2.6,0-4.7,2.1-4.7,4.7v13.9h-18v-13.9c0-2.6-2.1-4.7-4.7-4.7c-2.6,0-4.7,2.1-4.7,4.7v13.9h-18v-13.9c0-2.6-2.1-4.7-4.7-4.7
			s-4.7,2.1-4.7,4.7v13.9h-18v-13.9c0-2.6-2.1-4.7-4.7-4.7s-4.7,2.1-4.7,4.7v13.9h-6.1c-6.9,0-12.5,5.6-12.5,12.5v159.4
			c0,6.9,5.6,12.5,12.5,12.5h6.1v13.9c0,2.6,2.1,4.7,4.7,4.7s4.7-2.1,4.7-4.7V354h18v13.9c0,2.6,2.1,4.7,4.7,4.7s4.7-2.1,4.7-4.7
			V354h18v13.9c0,2.6,2.1,4.7,4.7,4.7c2.6,0,4.7-2.1,4.7-4.7V354h18v13.9c0,2.6,2.1,4.7,4.7,4.7c2.6,0,4.7-2.1,4.7-4.7V354
			 M329.7,341.6c0,1.6-1.3,3-3,3H195.3c-1.6,0-3-1.3-3-3V182.2c0-1.6,1.3-3,3-3h131.5c1.6,0,3,1.3,3,3L329.7,341.6L329.7,341.6z"/>
	</g>
</g>
<g>
	<g>
		<path class="st0" d="M171.8,121.8c-9.7,0-17.6,7.9-17.6,17.6s7.9,17.6,17.6,17.6s17.6-7.9,17.6-17.6S181.5,121.8,171.8,121.8z
			 M171.8,147.5c-4.5,0-8.1-3.6-8.1-8.1s3.6-8.1,8.1-8.1c4.5,0,8.1,3.6,8.1,8.1S176.3,147.5,171.8,147.5z"/>
	</g>
</g>
<g>
	<g>
		<path class="st0" d="M350.2,121.8c-9.7,0-17.6,7.9-17.6,17.6s7.9,17.6,17.6,17.6s17.6-7.9,17.6-17.6S359.9,121.8,350.2,121.8z
			 M350.2,147.5c-4.5,0-8.1-3.6-8.1-8.1s3.6-8.1,8.1-8.1c4.5,0,8.1,3.6,8.1,8.1S354.7,147.5,350.2,147.5z"/>
	</g>
</g>
<g>
	<g>
		<path class="st0" d="M171.8,366.8c-9.7,0-17.6,7.9-17.6,17.6s7.9,17.6,17.6,17.6c9.7,0,17.6-7.9,17.6-17.6
			S181.5,366.8,171.8,366.8z M171.8,392.5c-4.5,0-8.1-3.6-8.1-8.1s3.6-8.1,8.1-8.1c4.5,0,8.1,3.6,8.1,8.1
			C179.9,388.9,176.3,392.5,171.8,392.5z"/>
	</g>
</g>
<g>
	<g>
		<path class="st0" d="M350.2,366.8c-9.7,0-17.6,7.9-17.6,17.6s7.9,17.6,17.6,17.6s17.6-7.9,17.6-17.6S359.9,366.8,350.2,366.8z
			 M350.2,392.5c-4.5,0-8.1-3.6-8.1-8.1c0-4.5,3.6-8.1,8.1-8.1c4.5,0,8.1,3.6,8.1,8.1C358.4,388.9,354.7,392.5,350.2,392.5z"/>
	</g>
</g>
</svg>
