<?xml version="1.0" encoding="utf-8"?>
<!-- Generator: Adobe Illustrator 23.0.0, SVG Export Plug-In . SVG Version: 6.00 Build 0)  -->
<svg version="1.1" id="Capa_1" xmlns="http://www.w3.org/2000/svg" xmlns:xlink="http://www.w3.org/1999/xlink" x="0px" y="0px"
	 viewBox="0 0 480 480" style="enable-background:new 0 0 480 480;" xml:space="preserve">
<style type="text/css">
	.st0{fill:#93A1C1;}
</style>
<g>
	<g>
		<g>
			<path class="st0" d="M380.4,157.9h-227v-24.2c0-8-6.5-14.5-14.5-14.5h-38.6c-2.7,0-4.8,2.2-4.8,4.8v19.3c0,2.7,2.2,4.8,4.8,4.8
				h24.2v29h-14.5c-2.7,0-4.8,2.2-4.8,4.8c0,2.7,2.2,4.8,4.8,4.8h14.5v4.8h-14.5c-2.7,0-4.8,2.2-4.8,4.8v67.6c0,2.7,2.2,4.8,4.8,4.8
				h14.5v4.8h-14.5c-2.7,0-4.8,2.2-4.8,4.8c0,2.7,2.2,4.8,4.8,4.8h14.5v72.5c0,2.7,2.2,4.8,4.8,4.8h19.3c2.7,0,4.8-2.2,4.8-4.8
				v-33.8h24.2v24.2c0,2.7,2.2,4.8,4.8,4.8h58c2.7,0,4.8-2.2,4.8-4.8v-4.8c0-2.7,2.2-4.8,4.8-4.8c2.7,0,4.8,2.2,4.8,4.8v4.8
				c0,2.7,2.2,4.8,4.8,4.8h96.6c2.7,0,4.8-2.2,4.8-4.8v-24.2h19.3c2.7,0,4.8-2.2,4.8-4.8V162.7C385.2,160,383.1,157.9,380.4,157.9z
				 M124.4,259.3h-9.7v-58h9.7V259.3z M143.7,351.1h-9.7V143.4c0-2.7-2.2-4.8-4.8-4.8h-24.2v-9.7h33.8c2.7,0,4.8,2.2,4.8,4.8V351.1z
				 M351.4,341.4h-9.7V327h-9.7v14.5h-9.7V327h-9.7v14.5h-9.7V327h-9.7v14.5h-9.7V327h-9.7v14.5h-9.7c0-8-6.5-14.5-14.5-14.5
				c-8,0-14.5,6.5-14.5,14.5h-9.7V327h-9.7v14.5h-9.7V327h-9.7v14.5h-9.7v-19.3h164.2V341.4z M375.6,312.5H153.4V167.5h222.2V312.5z
				"/>
			<path class="st0" d="M239.6,272.2L239.6,272.2c11.3,19,31.8,30.6,53.9,30.6c11.3,0,22.4-3.1,32.1-8.9l0.1,0
				c8.9-5.4,16.4-12.9,21.7-21.8c0.2-0.3,0.4-0.6,0.5-0.9c11.3-19.6,11.1-43.9-0.6-63.3v0c-17.6-29.7-55.9-39.5-85.6-21.9
				c-0.1,0.1-0.3,0.2-0.4,0.2h0c-29.7,17.6-39.5,55.9-21.9,85.6C239.4,271.9,239.5,272,239.6,272.2z M261.9,282.7
				c-4.8-3.5-9-7.9-12.4-12.8h0l9.2-8c3.8-3.3,8.3-5.7,13.1-7.1l7.2-2l0.1,0.1l-3.9,4c-4.5,4.6-7.9,10.2-10,16.3L261.9,282.7z
				 M285.6,282.9l1.9,9.9c-5.9-0.7-11.7-2.3-17.1-5l3.9-11.5c1.6-4.8,4.3-9.1,7.8-12.7l5.3-5.4l0.1,0l-1.4,5.4
				C284.5,270,284.3,276.5,285.6,282.9z M297.4,292.9l-2.3-11.9c-1-4.9-0.8-10,0.4-14.9l1.8-7.2l0.2,0l1.5,5.3
				c1.8,6.2,4.9,12,9.1,16.9l6.6,7.6C309.2,291.1,303.4,292.5,297.4,292.9z M323.4,283.9L323.4,283.9l-8-9.2
				c-3.3-3.8-5.7-8.3-7.1-13.1l-2-7.2l0.1-0.1l4,3.9c4.6,4.5,10.2,7.9,16.3,10l9.5,3.2C332.6,276.3,328.3,280.5,323.4,283.9z
				 M341.3,263.1L341.3,263.1l-11.5-3.9c-4.8-1.6-9.1-4.3-12.7-7.8l-5.4-5.3l0-0.1l5.4,1.4c6.3,1.6,12.8,1.8,19.2,0.5l9.9-1.9
				C345.6,251.9,343.9,257.7,341.3,263.1z M342.1,218.7c2.4,5.5,3.8,11.3,4.3,17.3h0l-11.9,2.3c-4.9,1-10,0.8-14.9-0.4l-7.2-1.8
				l0-0.2l5.3-1.5c6.2-1.8,12-4.9,16.9-9.1L342.1,218.7z M325,197.3c4.8,3.5,9,7.9,12.4,12.8l0,0l-9.2,8c-3.8,3.3-8.3,5.7-13.1,7.1
				l-7.2,2l-0.1-0.1l3.9-4c4.5-4.6,7.9-10.2,10-16.3L325,197.3z M301.3,197.1l-1.9-9.9c5.9,0.7,11.7,2.4,17.1,5l-3.9,11.5
				c-1.6,4.8-4.3,9.1-7.8,12.7h0l-5.3,5.4l-0.1,0l1.4-5.4C302.4,210,302.6,203.5,301.3,197.1z M303.1,240c0,5.3-4.3,9.7-9.7,9.7
				s-9.7-4.3-9.7-9.7s4.3-9.7,9.7-9.7S303.1,234.7,303.1,240z M289.5,187.1l2.3,11.9c1,4.9,0.8,10-0.4,14.9l-1.8,7.2l-0.2,0
				l-1.5-5.3c-1.8-6.2-4.9-12-9.1-16.8l-6.6-7.6C277.7,188.9,283.5,187.5,289.5,187.1z M263.6,196.1l8,9.2c3.3,3.8,5.7,8.3,7.1,13.1
				l2,7.2l-0.1,0.1l-4-3.9c-4.6-4.5-10.2-7.9-16.3-10l-9.5-3.2C254.3,203.7,258.6,199.5,263.6,196.1z M245.6,216.9l11.5,3.9
				c4.8,1.6,9.1,4.3,12.7,7.8l5.4,5.3l0,0.1l-5.4-1.4c-6.3-1.6-12.8-1.8-19.2-0.5l-9.9,1.9C241.3,228.1,243,222.3,245.6,216.9z
				 M252.4,241.6c4.9-1,10-0.8,14.9,0.4l7.2,1.8l0,0.2l-5.3,1.5c-6.2,1.8-12,4.9-16.9,9.1l-7.6,6.6c-2.4-5.5-3.8-11.3-4.3-17.3
				L252.4,241.6z"/>
			<path class="st0" d="M211.3,191.7h-38.6v38.6h38.6V191.7z M201.7,220.7h-19.3v-19.3h19.3V220.7z"/>
			<rect x="172.7" y="240" class="st0" width="38.6" height="9.7"/>
			<rect x="172.7" y="259.3" class="st0" width="38.6" height="9.7"/>
			<rect x="172.7" y="278.6" class="st0" width="9.7" height="9.7"/>
			<rect x="187.2" y="278.6" class="st0" width="9.7" height="9.7"/>
			<rect x="201.7" y="278.6" class="st0" width="9.7" height="9.7"/>
		</g>
	</g>
</g>
</svg>
