<?xml version="1.0" encoding="utf-8"?>
<!-- Generator: Adobe Illustrator 23.0.0, SVG Export Plug-In . SVG Version: 6.00 Build 0)  -->
<svg version="1.1" id="Layer_1" xmlns="http://www.w3.org/2000/svg" xmlns:xlink="http://www.w3.org/1999/xlink" x="0px" y="0px"
	 viewBox="0 0 512 512" style="enable-background:new 0 0 512 512;" xml:space="preserve">
<style type="text/css">
	.st0{fill:#93A1C1;}
</style>
<g id="outline">
	<path class="st0" d="M233,122.8h-92c-7.6,0-13.8,6.2-13.8,13.8v202.3c0,7.6,6.2,13.8,13.8,13.8h23v9.2h-13.8c-2,0-3.7,1.3-4.4,3.1
		l-9.2,27.6c-0.8,2.4,0.5,5,2.9,5.8c0.5,0.2,1,0.2,1.5,0.2h92c2.5,0,4.6-2.1,4.6-4.6c0-0.5-0.1-1-0.2-1.5l-9.2-27.6
		c-0.6-1.9-2.4-3.1-4.4-3.1H210v-9.2h23c7.6,0,13.8-6.2,13.8-13.8V136.6C246.8,129,240.6,122.8,233,122.8z M145.7,343.5h-4.6
		c-2.5,0-4.6-2.1-4.6-4.6V136.6c0-2.5,2.1-4.6,4.6-4.6h4.6V343.5z M220.5,371.1l6.1,18.4h-79.2l6.1-18.4H220.5z M173.2,361.9v-9.2
		h27.6v9.2H173.2z M219.2,343.5h-64.4V132h64.4V343.5z M237.6,338.9c0,2.5-2.1,4.6-4.6,4.6h-4.6V132h4.6c2.5,0,4.6,2.1,4.6,4.6
		V338.9z"/>
	<path class="st0" d="M177.8,334.3h18.4c7.6,0,13.8-6.2,13.8-13.8c0-7.6-6.2-13.8-13.8-13.8h-18.4c-7.6,0-13.8,6.2-13.8,13.8
		C164,328.2,170.2,334.3,177.8,334.3z M177.8,315.9h18.4c2.5,0,4.6,2.1,4.6,4.6s-2.1,4.6-4.6,4.6h-18.4c-2.5,0-4.6-2.1-4.6-4.6
		S175.3,315.9,177.8,315.9z"/>
	<path class="st0" d="M164,141.2h9.2v9.2H164V141.2z"/>
	<path class="st0" d="M182.4,141.2h9.2v9.2h-9.2V141.2z"/>
	<path class="st0" d="M200.8,141.2h9.2v9.2h-9.2V141.2z"/>
	<path class="st0" d="M173.2,159.6h9.2v9.2h-9.2V159.6z"/>
	<path class="st0" d="M191.6,159.6h9.2v9.2h-9.2V159.6z"/>
	<path class="st0" d="M164,178h9.2v9.2H164V178z"/>
	<path class="st0" d="M182.4,178h9.2v9.2h-9.2V178z"/>
	<path class="st0" d="M200.8,178h9.2v9.2h-9.2V178z"/>
	<path class="st0" d="M173.2,196.4h9.2v9.2h-9.2V196.4z"/>
	<path class="st0" d="M191.6,196.4h9.2v9.2h-9.2V196.4z"/>
	<path class="st0" d="M164,214.8h9.2v9.2H164V214.8z"/>
	<path class="st0" d="M182.4,214.8h9.2v9.2h-9.2V214.8z"/>
	<path class="st0" d="M200.8,214.8h9.2v9.2h-9.2V214.8z"/>
	<path class="st0" d="M173.2,233.2h9.2v9.2h-9.2V233.2z"/>
	<path class="st0" d="M191.6,233.2h9.2v9.2h-9.2V233.2z"/>
	<path class="st0" d="M164,251.6h9.2v9.2H164V251.6z"/>
	<path class="st0" d="M182.4,251.6h9.2v9.2h-9.2V251.6z"/>
	<path class="st0" d="M200.8,251.6h9.2v9.2h-9.2V251.6z"/>
	<path class="st0" d="M164,288.4h9.2v9.2H164V288.4z"/>
	<path class="st0" d="M182.4,288.4h9.2v9.2h-9.2V288.4z"/>
	<path class="st0" d="M200.8,288.4h9.2v9.2h-9.2V288.4z"/>
	<path class="st0" d="M173.2,270h9.2v9.2h-9.2V270z"/>
	<path class="st0" d="M191.6,270h9.2v9.2h-9.2V270z"/>
	<path class="st0" d="M370.9,122.8h-92c-7.6,0-13.8,6.2-13.8,13.8v202.3c0,7.6,6.2,13.8,13.8,13.8h23v9.2h-13.8
		c-2,0-3.7,1.3-4.4,3.1l-9.2,27.6c-0.8,2.4,0.5,5,2.9,5.8c0.5,0.2,1,0.2,1.5,0.2h92c2.5,0,4.6-2.1,4.6-4.6c0-0.5-0.1-1-0.2-1.5
		l-9.2-27.6c-0.6-1.9-2.4-3.1-4.4-3.1H348v-9.2h23c7.6,0,13.8-6.2,13.8-13.8V136.6C384.7,129,378.6,122.8,370.9,122.8z M283.6,343.5
		H279c-2.5,0-4.6-2.1-4.6-4.6V136.6c0-2.5,2.1-4.6,4.6-4.6h4.6V343.5z M358.4,371.1l6.1,18.4h-79.2l6.1-18.4H358.4z M311.2,361.9
		v-9.2h27.6v9.2H311.2z M357.2,343.5h-64.4V132h64.4V343.5z M375.5,338.9c0,2.5-2.1,4.6-4.6,4.6h-4.6V132h4.6c2.5,0,4.6,2.1,4.6,4.6
		V338.9z"/>
	<path class="st0" d="M315.8,334.3h18.4c7.6,0,13.8-6.2,13.8-13.8c0-7.6-6.2-13.8-13.8-13.8h-18.4c-7.6,0-13.8,6.2-13.8,13.8
		C302,328.2,308.2,334.3,315.8,334.3z M315.8,315.9h18.4c2.5,0,4.6,2.1,4.6,4.6s-2.1,4.6-4.6,4.6h-18.4c-2.5,0-4.6-2.1-4.6-4.6
		S313.2,315.9,315.8,315.9z"/>
	<path class="st0" d="M302,141.2h9.2v9.2H302V141.2z"/>
	<path class="st0" d="M320.4,141.2h9.2v9.2h-9.2V141.2z"/>
	<path class="st0" d="M338.8,141.2h9.2v9.2h-9.2V141.2z"/>
	<path class="st0" d="M311.2,159.6h9.2v9.2h-9.2V159.6z"/>
	<path class="st0" d="M329.6,159.6h9.2v9.2h-9.2V159.6z"/>
	<path class="st0" d="M302,178h9.2v9.2H302V178z"/>
	<path class="st0" d="M320.4,178h9.2v9.2h-9.2V178z"/>
	<path class="st0" d="M338.8,178h9.2v9.2h-9.2V178z"/>
	<path class="st0" d="M311.2,196.4h9.2v9.2h-9.2V196.4z"/>
	<path class="st0" d="M329.6,196.4h9.2v9.2h-9.2V196.4z"/>
	<path class="st0" d="M302,214.8h9.2v9.2H302V214.8z"/>
	<path class="st0" d="M320.4,214.8h9.2v9.2h-9.2V214.8z"/>
	<path class="st0" d="M338.8,214.8h9.2v9.2h-9.2V214.8z"/>
	<path class="st0" d="M311.2,233.2h9.2v9.2h-9.2V233.2z"/>
	<path class="st0" d="M329.6,233.2h9.2v9.2h-9.2V233.2z"/>
	<path class="st0" d="M302,251.6h9.2v9.2H302V251.6z"/>
	<path class="st0" d="M320.4,251.6h9.2v9.2h-9.2V251.6z"/>
	<path class="st0" d="M338.8,251.6h9.2v9.2h-9.2V251.6z"/>
	<path class="st0" d="M302,288.4h9.2v9.2H302V288.4z"/>
	<path class="st0" d="M320.4,288.4h9.2v9.2h-9.2V288.4z"/>
	<path class="st0" d="M338.8,288.4h9.2v9.2h-9.2V288.4z"/>
	<path class="st0" d="M311.2,270h9.2v9.2h-9.2V270z"/>
	<path class="st0" d="M329.6,270h9.2v9.2h-9.2V270z"/>
</g>
</svg>
